<?xml version="1.0" encoding="UTF-8" standalone="no"?>
<svg
   xmlns:dc="http://purl.org/dc/elements/1.1/"
   xmlns:cc="http://creativecommons.org/ns#"
   xmlns:rdf="http://www.w3.org/1999/02/22-rdf-syntax-ns#"
   xmlns:svg="http://www.w3.org/2000/svg"
   xmlns="http://www.w3.org/2000/svg"
   viewBox="0 0 2125.0132 1503.7067"
   height="1503.7067"
   width="2125.0132"
   xml:space="preserve"
   id="svg2"
   version="1.1"><metadata
     id="metadata8"><rdf:RDF><cc:Work
         rdf:about=""><dc:format>image/svg+xml</dc:format><dc:type
           rdf:resource="http://purl.org/dc/dcmitype/StillImage" /></cc:Work></rdf:RDF></metadata><defs
     id="defs6"><clipPath
       id="clipPath22"
       clipPathUnits="userSpaceOnUse"><path
         id="path20"
         d="m 13643.5,10907.8 c 226,-1323.29 200.6,-5580.96 -3049.6,-6745.49 74.4,3446.46 1951.2,3506.69 3049.6,6745.49 z" /></clipPath></defs><g
     transform="matrix(1.3333333,0,0,-1.3333333,0,1503.7067)"
     id="g10"><g
       transform="scale(0.1)"
       id="g12"><path
         id="path14"
         style="fill:#978dce;fill-opacity:1;fill-rule:nonzero;stroke:none"
         d="m 13643.5,10907.8 c 226,-1323.29 200.6,-5580.96 -3049.6,-6745.49 74.4,3446.46 1951.2,3506.69 3049.6,6745.49" /><g
         id="g16"><g
           clip-path="url(#clipPath22)"
           id="g18"><path
             id="path24"
             style="fill:#ddd3ed;fill-opacity:1;fill-rule:nonzero;stroke:none"
             d="m 13628.8,10934.7 c 49.3,-255.1 -35,-510.1 -106.6,-752.5 -70.6,-239.35 -146.3,-477.16 -226.6,-713.38 -160.4,-471.7 -339.6,-936.92 -534.6,-1395.36 -196.2,-461.35 -408.7,-915.74 -634.9,-1363.17 -226.5,-448.03 -466.7,-889.09 -718.3,-1323.51 -250.6,-432.65 -512.4,-858.72 -783.6,-1278.79 -34.1,-52.9 -68.4,-105.7 -102.8,-158.43 -12.5,-19.13 -43.4,-1.29 -30.8,17.99 272.2,416.81 535.5,839.36 787.9,1268.44 251.4,427.33 491.9,861.08 719.4,1301.59 228.1,441.82 443.2,890.47 642.6,1345.99 199.4,455.49 383.1,917.92 548.7,1386.81 82.3,233.24 160.1,468.07 233.1,704.4 37.3,120.62 73.5,241.62 108,363.12 36.3,127.5 70,257.5 76.9,390.5 3.5,66.1 -0.2,131.9 -12.8,196.9 -4.3,22.4 30.1,32 34.4,9.4 v 0" /><path
             id="path26"
             style="fill:#ddd3ed;fill-opacity:1;fill-rule:nonzero;stroke:none"
             d="m 13263.9,9482.08 c -112.5,189.9 -270.2,348.28 -382.5,538.32 -31.3,52.9 -58.4,108.2 -80,165.9 -8.1,21.5 26.3,30.8 34.3,9.4 77,-205.12 228.6,-368.98 356.6,-542.84 36.3,-49.4 71.1,-100 102.4,-152.8 11.7,-19.78 -19.1,-37.73 -30.8,-17.98 v 0" /><path
             id="path28"
             style="fill:#ddd3ed;fill-opacity:1;fill-rule:nonzero;stroke:none"
             d="m 13049,8892.83 c -118.6,189.93 -244.2,375.43 -376.7,555.91 -37.5,51.02 -75.5,101.62 -114,151.84 -14,18.19 16.9,35.95 30.7,17.98 136.3,-177.64 266,-360.33 388.6,-547.72 34.6,-52.97 68.7,-106.33 102.2,-160.02 12.2,-19.51 -18.6,-37.42 -30.8,-17.99 v 0" /><path
             id="path30"
             style="fill:#ddd3ed;fill-opacity:1;fill-rule:nonzero;stroke:none"
             d="m 12849,8360.32 c -71.4,133.21 -168,249.91 -257.8,370.73 -89.5,120.5 -170,247.51 -239.8,380.44 -39.4,75.07 -75.3,151.9 -108.1,230.1 -3.8,8.95 4,19.51 12.4,21.92 10.3,2.94 18.2,-3.61 21.9,-12.45 58.2,-138.72 127.6,-272.8 207,-400.57 78.3,-125.91 169.5,-241.66 257.5,-360.64 50.1,-67.7 97.9,-137.24 137.7,-211.54 10.8,-20.21 -19.9,-38.23 -30.8,-17.99 v 0" /><path
             id="path32"
             style="fill:#ddd3ed;fill-opacity:1;fill-rule:nonzero;stroke:none"
             d="m 12794.5,8213.89 c -153.8,218.19 -333.1,418.16 -533,594.95 -56.7,50.06 -114.9,98.19 -174.7,144.45 -7.7,5.93 -6.1,18.94 0,25.2 7.4,7.59 17.6,5.86 25.2,0 213,-164.84 406.6,-354.4 575.6,-564.08 47.9,-59.33 93.8,-120.22 137.7,-182.53 13.2,-18.78 -17.7,-36.61 -30.8,-17.99 v 0" /><path
             id="path34"
             style="fill:#ddd3ed;fill-opacity:1;fill-rule:nonzero;stroke:none"
             d="m 12426.1,7423.21 c 0.8,75.59 -43,142.65 -78.4,206.45 -39.1,70.69 -78.6,141.23 -118.4,211.57 -79.6,140.66 -160.7,280.49 -244,419 -46.6,77.5 -93.9,154.58 -142,231.17 -12.2,19.48 18.6,37.38 30.8,17.99 175,-278.7 339.2,-563.91 498.8,-851.65 40.2,-72.53 89.8,-148.51 88.8,-234.53 -0.3,-22.92 -35.9,-22.98 -35.6,0 v 0" /><path
             id="path36"
             style="fill:#ddd3ed;fill-opacity:1;fill-rule:nonzero;stroke:none"
             d="m 12347.8,7239.78 c -193,293.42 -367.7,598.83 -522.4,914.1 -43.4,88.41 -85.2,177.59 -125.5,267.45 -9.3,20.76 21.4,38.9 30.8,17.99 143.6,-320.48 307.2,-631.96 489.8,-931.95 51.2,-84.13 104,-167.32 158.1,-249.6 12.6,-19.22 -18.2,-37.1 -30.8,-17.99 v 0" /><path
             id="path38"
             style="fill:#ddd3ed;fill-opacity:1;fill-rule:nonzero;stroke:none"
             d="m 12123.8,6803.89 c -117.8,237.73 -237.4,479.6 -409,684.06 -47.8,56.96 -99.5,110.57 -155.2,159.78 -17.3,15.2 8,40.33 25.2,25.2 201.3,-177.62 343.1,-409.61 466,-645.48 35.5,-68.06 69.7,-136.8 103.8,-205.57 10.1,-20.49 -20.6,-38.56 -30.8,-17.99 v 0" /><path
             id="path40"
             style="fill:#ddd3ed;fill-opacity:1;fill-rule:nonzero;stroke:none"
             d="m 11757,6077.15 c -132.8,263.53 -296.7,511.19 -488.2,735.74 -54.3,63.72 -110.8,125.54 -169.3,185.45 -16.1,16.42 9.1,41.64 25.2,25.2 208.2,-213.25 391,-451.43 542.6,-708.01 42.7,-72.08 82.8,-145.61 120.4,-220.39 10.3,-20.44 -20.4,-38.5 -30.7,-17.99 v 0" /><path
             id="path42"
             style="fill:#ddd3ed;fill-opacity:1;fill-rule:nonzero;stroke:none"
             d="m 11683.3,5949.02 c -89.1,224.06 -227.7,427.88 -402.2,594.18 -48.8,46.59 -100.5,90.24 -154.7,130.51 -18.2,13.52 -0.5,44.47 18,30.77 198.6,-147.49 364.6,-337.35 483.4,-554.39 33.9,-61.93 63.8,-125.99 89.9,-191.6 8.4,-21.31 -26,-30.56 -34.4,-9.47 v 0" /><path
             id="path44"
             style="fill:#ddd3ed;fill-opacity:1;fill-rule:nonzero;stroke:none"
             d="m 11420.2,5479.04 c -57.4,148.67 -132.6,290.29 -222.8,421.59 -90.3,131.32 -195.9,252.03 -313.9,359.13 -67,60.78 -137.9,116.96 -212.4,168.22 -18.8,12.92 -1,43.83 17.9,30.78 134.5,-92.52 258,-200.66 367.2,-321.98 109.2,-121.23 204.5,-255.16 282.7,-398.31 44.1,-80.64 82.6,-164.23 115.6,-249.95 8.3,-21.42 -26.2,-30.69 -34.3,-9.48 v 0" /><path
             id="path46"
             style="fill:#ddd3ed;fill-opacity:1;fill-rule:nonzero;stroke:none"
             d="m 11161.9,5039.13 c -71.3,249.01 -248.9,447.05 -438.4,615.53 -57.1,50.77 -115.9,99.65 -174.8,148.34 -17.7,14.62 7.7,39.72 25.2,25.2 204.8,-169.27 413.4,-346.64 541.7,-583.8 33.7,-62.18 61.2,-127.79 80.6,-195.8 6.4,-22.09 -28,-31.52 -34.3,-9.47 v 0" /><path
             id="path48"
             style="fill:#ddd3ed;fill-opacity:1;fill-rule:nonzero;stroke:none"
             d="m 11114.8,4965.69 c -85.1,193.53 -219.3,365.11 -387.6,493.27 -47.8,36.37 -98.1,69.19 -150.6,98.37 -20,11.16 -2.1,41.95 18,30.79 189.5,-105.41 350.9,-259.53 465.8,-443.31 32.3,-51.57 60.7,-105.44 85.2,-161.13 9.1,-20.8 -21.6,-38.95 -30.8,-17.99 v 0" /><path
             id="path50"
             style="fill:#ddd3ed;fill-opacity:1;fill-rule:nonzero;stroke:none"
             d="m 12989.1,8689.68 c 207.4,86.94 406.8,191.64 610,287.86 197.7,93.64 400.5,179.88 613.3,232.96 118.6,29.59 240,48.48 362.2,52.56 23,0.76 22.9,-34.88 0,-35.64 -216.9,-7.24 -428.7,-62.99 -630.9,-139.43 -206.9,-78.19 -404.2,-178.62 -602.8,-275.35 -112.9,-55.01 -226.5,-108.77 -342.4,-157.33 -8.9,-3.75 -19.5,4.05 -21.9,12.44 -2.9,10.24 3.6,18.23 12.5,21.93 v 0" /><path
             id="path52"
             style="fill:#ddd3ed;fill-opacity:1;fill-rule:nonzero;stroke:none"
             d="m 13229.7,9343.41 c 281.7,121.42 543.2,288.75 770.9,494.27 64.7,58.35 126.5,119.74 185.5,183.82 15.6,16.9 40.7,-8.3 25.2,-25.2 -209.7,-227.83 -457,-421.04 -728.7,-569.38 -76.5,-41.72 -154.9,-79.81 -234.9,-114.28 -20.8,-8.98 -39,21.71 -18,30.77 v 0" /><path
             id="path54"
             style="fill:#ddd3ed;fill-opacity:1;fill-rule:nonzero;stroke:none"
             d="m 13441.1,9971.58 c 175.8,122.62 338.1,263.82 484.3,420.62 15.6,16.8 40.8,-8.5 25.2,-25.2 -148.2,-159 -313.2,-301.9 -491.5,-426.2 -18.9,-13.15 -36.7,17.74 -18,30.78 v 0" /><path
             id="path56"
             style="fill:#ddd3ed;fill-opacity:1;fill-rule:nonzero;stroke:none"
             d="m 12688,7931.25 c 229.8,78.68 457.5,163.76 682.5,255.25 224.5,91.26 446.3,188.96 665.3,292.8 123.3,58.5 245.8,118.99 367.2,181.36 20.4,10.46 38.4,-20.28 18,-30.77 -216.9,-111.41 -437,-216.74 -659.9,-315.71 -222.5,-98.83 -447.9,-191.44 -675.6,-277.59 -128.6,-48.64 -258,-95.19 -388,-139.71 -21.8,-7.45 -31.1,26.97 -9.5,34.37 v 0" /><path
             id="path58"
             style="fill:#ddd3ed;fill-opacity:1;fill-rule:nonzero;stroke:none"
             d="m 12330.5,7135.24 c 132.8,15.89 263.3,46.5 392.4,80.84 125,33.26 249.6,68.6 374,104 246,69.96 491.1,144.31 729.8,236.59 134.4,51.96 266.4,109.81 394.8,175.3 20.4,10.4 38.4,-20.34 18,-30.78 -229.8,-117.23 -471.3,-209.81 -716.3,-289.7 -247.3,-80.6 -498.2,-150.31 -749.1,-218.55 -146,-39.69 -293.2,-75.34 -443.6,-93.33 -22.7,-2.72 -22.5,32.94 0,35.63 v 0" /><path
             id="path60"
             style="fill:#ddd3ed;fill-opacity:1;fill-rule:nonzero;stroke:none"
             d="m 12601.5,7731.7 c 294.7,59.51 586.2,134.42 873.1,224.47 287.1,90.13 569.5,195.27 845.5,315.17 154.7,67.21 307.4,139.01 457.8,215.2 20.5,10.34 38.5,-20.4 18,-30.78 -269.6,-136.5 -546.3,-258.84 -828.7,-366.33 -281,-106.94 -567.6,-199.16 -858.2,-276.08 -164.8,-43.62 -330.9,-82.28 -498.1,-116.02 -22.3,-4.52 -31.9,29.82 -9.4,34.37 v 0" /><path
             id="path62"
             style="fill:#ddd3ed;fill-opacity:1;fill-rule:nonzero;stroke:none"
             d="m 12054.8,6593.87 c 321.3,-41.19 640.3,38.03 947.6,123.99 316.8,88.57 633.4,177.47 951,262.76 180,48.36 360.3,95.94 540.8,142.79 22.2,5.77 31.7,-28.6 9.5,-34.37 -321.1,-83.34 -641.5,-169.04 -961.2,-257.15 -159.5,-43.95 -318.8,-88.67 -478.1,-133.62 -156,-44.05 -312.6,-87.24 -472.2,-116.29 -177.1,-32.22 -358.2,-46.72 -537.4,-23.75 -22.4,2.88 -22.7,38.56 0,35.64 v 0" /><path
             id="path64"
             style="fill:#ddd3ed;fill-opacity:1;fill-rule:nonzero;stroke:none"
             d="m 11935.8,6379.31 c 229.9,-15.47 460.7,-13.16 690.6,2.38 232.2,15.68 463.4,44.62 693.1,81.6 228.4,36.74 455.3,81.37 681.7,128.79 226.7,47.5 452.8,97.79 679.4,145.85 227.6,48.27 455.8,94.29 685.3,132.91 28.4,4.78 56.8,9.44 85.3,13.99 22.4,3.59 32.1,-30.75 9.5,-34.37 -229.8,-36.78 -458.3,-81.45 -686.1,-129.09 -227.8,-47.65 -455.1,-98.2 -682.8,-146.53 -227.4,-48.26 -455.3,-94.34 -684.5,-133.01 -229.3,-38.68 -459.9,-70.13 -691.7,-89.11 -230.7,-18.9 -462.6,-25.34 -693.9,-14.06 -28.7,1.39 -57.3,3.08 -85.9,5.01 -22.8,1.53 -23,37.18 0,35.64 v 0" /><path
             id="path66"
             style="fill:#ddd3ed;fill-opacity:1;fill-rule:nonzero;stroke:none"
             d="m 11605.6,5775.03 c 247,-23.94 495.9,-27.1 743.4,-9.48 246.9,17.59 492.2,55.96 732.6,114.52 135.9,33.07 270.1,72.66 402.2,118.44 21.7,7.52 31,-26.9 9.4,-34.37 -236.2,-81.86 -479.2,-143.68 -725.9,-184.62 -244.5,-40.6 -492.3,-61.2 -740.2,-60.86 -140.7,0.19 -281.4,7.16 -421.5,20.73 -22.6,2.2 -22.8,37.86 0,35.64 v 0" /><path
             id="path68"
             style="fill:#ddd3ed;fill-opacity:1;fill-rule:nonzero;stroke:none"
             d="m 11312.3,5281.19 c 235.1,13.42 469.9,32.7 704,57.96 234.5,25.29 468.3,56.56 701.2,93.8 130.6,20.89 261,43.66 391,68.24 22.5,4.24 32.1,-30.11 9.5,-34.36 -233.3,-44.1 -467.7,-82.33 -702.9,-114.5 -233.9,-31.99 -468.6,-58.19 -703.9,-78.35 -132.8,-11.38 -265.8,-20.84 -398.9,-28.42 -22.9,-1.31 -22.8,34.33 0,35.63 v 0" /><path
             id="path70"
             style="fill:#ddd3ed;fill-opacity:1;fill-rule:nonzero;stroke:none"
             d="m 11051.4,4810.51 c 253.4,38.33 506.8,76.58 761.2,107.93 253.3,31.21 507.6,55.49 762.7,65.65 143.5,5.72 287.3,6.89 430.8,2.47 22.9,-0.7 23,-36.34 0,-35.63 -254,7.79 -508.2,-2.07 -761.4,-23.01 -254.1,-21.01 -507.1,-52.96 -759.5,-88.87 -141.5,-20.14 -282.9,-41.52 -424.3,-62.92 -22.4,-3.39 -32.1,30.95 -9.5,34.38 v 0" /></g></g><path
         id="path72"
         style="fill:#c9bee4;fill-opacity:1;fill-rule:nonzero;stroke:none"
         d="m 1766.37,3516.38 c -129.72,488.74 378.19,728.56 260.07,973.89 -108.04,210.09 -461.26,253.45 -493.89,384.48 -47.91,128.89 147.78,350.73 30.16,552.05 -104.2,178.35 -468.44,16.08 -537.04,176.77 -72.686,170.27 -254.229,442.65 -389.732,401.06 C 485.32,5958.41 532.832,5585.92 522.297,5482.79 503.453,5298.34 207.648,5174.42 234.805,4900.22 251.461,4732.09 530.266,4783.25 617.52,4599.37 715.84,4392.17 357.969,4313.11 498.438,3926.93 708.223,3350.22 1294.61,3722.28 1632.97,3451.58 c 108.72,-86.98 136.25,34.74 133.4,64.8" /><path
         id="path74"
         style="fill:#ffffff;fill-opacity:1;fill-rule:nonzero;stroke:none"
         d="m 711.262,5766.18 c 70.629,-230.6 141.258,-461.2 211.883,-691.8 54.21,-177.01 104.375,-357.38 183.415,-525.32 57.65,-122.46 122.62,-241.54 188.01,-359.99 75.75,-137.19 153.57,-273.24 232.25,-408.77 62.22,-107.17 125.07,-213.99 188.28,-320.58 5.34,-8.99 10.67,-17.98 16,-26.97 5.93,-9.98 21.53,-0.9 15.59,9.11 -59.24,99.79 -118.2,199.74 -176.64,300.01 -78.06,133.95 -155.31,268.39 -230.78,403.82 -68.67,123.24 -136.66,247.1 -198.59,373.88 -74.93,153.37 -125.51,316.08 -175.442,478.97 -70.133,228.83 -140.183,457.7 -210.277,686.56 -8.762,28.63 -17.531,57.25 -26.305,85.88 -3.386,11.07 -20.808,6.35 -17.394,-4.8 v 0" /><path
         id="path76"
         style="fill:#ffffff;fill-opacity:1;fill-rule:nonzero;stroke:none"
         d="m 797.727,5542.16 c 8.5,28.48 19.597,56.02 33.492,82.3 12.312,23.28 26.086,48.69 48.816,63.32 9.738,6.26 0.699,21.89 -9.105,15.58 -24.797,-15.96 -40.344,-41.92 -53.989,-67.35 -15.203,-28.32 -27.418,-58.25 -36.613,-89.06 -3.332,-11.14 14.082,-15.9 17.399,-4.79 v 0" /><path
         id="path78"
         style="fill:#ffffff;fill-opacity:1;fill-rule:nonzero;stroke:none"
         d="m 1026.65,4794.96 c 48.49,150.54 152.86,281.17 287.47,363.86 38.5,23.65 79.3,43.28 121.87,58.45 10.86,3.86 6.17,21.3 -4.8,17.4 -154.04,-54.9 -285.57,-166.57 -366.43,-308.59 -22.81,-40.05 -41.38,-82.46 -55.51,-126.32 -3.57,-11.08 13.85,-15.82 17.4,-4.8 v 0" /><path
         id="path80"
         style="fill:#ffffff;fill-opacity:1;fill-rule:nonzero;stroke:none"
         d="m 894.109,5224.66 c -5.339,13.27 -16.308,22.95 -27.343,31.57 -16.86,13.16 -35.246,24.28 -53.786,34.86 -41.117,23.49 -83.828,43.97 -125.66,66.12 -14.66,7.75 -31.25,15.26 -43.824,26.26 -8.703,7.61 -21.512,-5.1 -12.754,-12.76 14.164,-12.4 32.012,-20.91 48.528,-29.65 25.835,-13.65 52.011,-26.66 77.91,-40.19 26.172,-13.69 52.324,-27.68 77.133,-43.73 13.742,-8.9 35.921,-21.18 42.398,-37.28 4.277,-10.63 21.734,-5.98 17.398,4.8 v 0" /><path
         id="path82"
         style="fill:#ffffff;fill-opacity:1;fill-rule:nonzero;stroke:none"
         d="m 1443.51,3956.49 c -0.25,6.7 1.42,12.58 3.47,21.07 3.33,13.7 7.5,27.2 11.95,40.57 13.31,39.96 29.53,78.96 47.71,116.94 45.81,95.75 104.9,190.2 186.89,259.13 44.53,37.44 96.92,65.49 154.86,74.32 11.45,1.73 6.58,19.13 -4.8,17.39 -109.05,-16.61 -194.83,-97.28 -258.1,-182.64 -59.71,-80.55 -106.05,-172.4 -139.34,-266.88 -5.87,-16.66 -11.36,-33.51 -15.71,-50.64 -2.37,-9.29 -5.33,-19.57 -4.97,-29.26 0.43,-11.58 18.47,-11.64 18.04,0 v 0" /><path
         id="path84"
         style="fill:#ffffff;fill-opacity:1;fill-rule:nonzero;stroke:none"
         d="m 645.836,4026.63 c 19.391,7.78 37.574,19.02 56.051,28.69 34.105,17.85 68.715,34.75 104.058,50.01 96.633,41.75 200.195,72.63 305.815,77.75 66.22,3.2 132.4,-4.41 195.35,-25.59 11.03,-3.71 15.76,13.71 4.79,17.39 -202.74,68.25 -421.673,-2.58 -604.048,-96.17 -14.489,-7.43 -28.848,-15.09 -43.227,-22.71 -4.824,-2.55 -9.645,-5.12 -14.512,-7.59 -1.922,-0.98 -3.855,-1.94 -5.8,-2.87 -1.766,-0.85 -3.95,-1.78 -3.27,-1.51 -10.645,-4.27 -5.996,-21.73 4.793,-17.4 v 0" /><path
         id="path86"
         style="fill:#ffffff;fill-opacity:1;fill-rule:nonzero;stroke:none"
         d="m 773.617,4516.88 c 118.602,18.01 245.833,20.88 356.333,-32.44 10.41,-5.03 19.58,10.53 9.11,15.58 -115.33,55.65 -246.404,53.07 -370.24,34.25 -11.441,-1.74 -6.578,-19.12 4.797,-17.39 v 0" /><path
         id="path88"
         style="fill:#ffffff;fill-opacity:1;fill-rule:nonzero;stroke:none"
         d="m 984.59,3734.32 c 62.28,38.11 138.15,53.98 209.74,62.87 76.5,9.5 155.62,11.18 232.04,-0.07 32.33,-4.76 65.63,-11.5 95.25,-25.79 10.41,-5.02 19.57,10.54 9.1,15.58 -60.35,29.1 -132.88,34.25 -198.82,35.51 -82.44,1.57 -166.55,-6.35 -246.31,-27.78 -38.23,-10.27 -76.22,-24 -110.106,-44.75 -9.886,-6.04 -0.836,-21.66 9.106,-15.57 v 0" /><path
         id="path90"
         style="fill:#ffffff;fill-opacity:1;fill-rule:nonzero;stroke:none"
         d="m 364.465,4993.17 c 154.976,-24.87 312.207,-30.48 468.883,-33.79 44.168,-0.94 88.332,-1.67 132.504,-2.57 11.609,-0.24 11.609,17.81 0,18.04 -199.036,4.05 -399.516,4.1 -596.594,35.72 -11.356,1.82 -16.25,-15.56 -4.793,-17.4 v 0" /><path
         id="path92"
         style="fill:#ffffff;fill-opacity:1;fill-rule:nonzero;stroke:none"
         d="m 1215.07,4373.43 c 13.51,57.19 38.49,112.13 65.79,163.9 33.47,63.47 73.27,125.07 123.4,176.73 25.46,26.23 53.87,49.84 86.71,66.24 10.39,5.19 1.26,20.76 -9.11,15.58 -61.4,-30.67 -109.18,-84.82 -148.84,-139.58 -42.45,-58.63 -77.49,-122.93 -105.37,-189.68 -11.98,-28.69 -22.82,-58.09 -29.98,-88.4 -2.66,-11.29 14.73,-16.11 17.4,-4.79 v 0" /><path
         id="path94"
         style="fill:#ffffff;fill-opacity:1;fill-rule:nonzero;stroke:none"
         d="m 1246.29,5119.58 c -5.57,18.85 5.64,41.39 10.95,59.43 5.69,19.33 11.21,38.71 16.58,58.14 10.75,38.85 20.84,77.87 30.36,117.04 2.74,11.28 -14.66,16.09 -17.4,4.79 -10.25,-42.17 -21.17,-84.18 -32.84,-126 -5.84,-20.9 -11.86,-41.75 -18.06,-62.55 -5.43,-18.23 -12.62,-36.6 -6.99,-55.64 3.29,-11.12 20.71,-6.38 17.4,4.79 v 0" /><path
         id="path96"
         style="fill:#c9bee4;fill-opacity:1;fill-rule:nonzero;stroke:none"
         d="m 2130.42,2381.7 c -328.29,384.6 25.98,820.45 -186.6,990.6 -188.26,142.71 -525.5,29.08 -611.58,133.11 -98.94,95.52 -18.4,380.16 -211.51,510.82 -171.07,115.76 -429.335,-188.05 -560.679,-72.8 -139.156,122.09 -420.625,289.2 -524.8244,193.1 -115.8243,-106.8 88.0824,-422.13 123.1714,-519.67 62.758,-174.47 -150.37847,-414.11 -7.328,-649.6 87.715,-144.41 316.989,22.28 475.172,-105.79 178.242,-144.32 -110.254,-370.36 183.379,-657.82 438.529,-429.31 806.389,159.71 1228.529,61.94 135.64,-31.42 107.83,90.23 92.27,116.11" /><path
         id="path98"
         style="fill:#ffffff;fill-opacity:1;fill-rule:nonzero;stroke:none"
         d="m 206.676,3953.64 c 163.394,-177.39 326.793,-354.78 490.187,-532.17 125.125,-135.85 248.02,-276.59 391.627,-393.51 104.86,-85.37 214.78,-164.63 324.84,-243.09 127.63,-90.97 256.63,-180.02 386.19,-268.22 102.87,-70.03 206.16,-139.45 309.68,-208.52 8.69,-5.81 17.38,-11.61 26.08,-17.4 9.69,-6.46 18.73,9.16 9.11,15.58 -96.56,64.36 -192.95,129 -288.99,194.14 -128.76,87.33 -256.99,175.46 -384.04,265.27 -115.09,81.37 -229.91,163.56 -340.4,251.15 -133.46,105.8 -249.179,230.49 -364.366,355.49 -162.141,175.96 -324.203,351.99 -486.309,527.98 -20.285,22.01 -40.566,44.04 -60.851,66.06 -7.883,8.56 -20.618,-4.22 -12.758,-12.76 v 0" /><path
         id="path100"
         style="fill:#ffffff;fill-opacity:1;fill-rule:nonzero;stroke:none"
         d="m 380.895,3790.28 c -4.645,29.45 -6.36,59.3 -5.157,89.09 1.067,26.33 2.817,54.48 16.91,77.52 6.075,9.93 -9.523,19 -15.582,9.1 -15.214,-24.88 -17.867,-54.8 -19.222,-83.29 -1.547,-32.54 0.582,-65.04 5.652,-97.21 1.809,-11.44 19.195,-6.58 17.399,4.79 v 0" /><path
         id="path102"
         style="fill:#ffffff;fill-opacity:1;fill-rule:nonzero;stroke:none"
         d="m 910.391,3215.53 c -21.328,156.63 16.894,319.46 102.369,452.07 24.5,38.02 52.92,73.23 84.77,105.34 8.18,8.25 -4.57,21.02 -12.76,12.75 -115.247,-116.22 -185.075,-274.01 -196.567,-437.08 -3.242,-46.05 -1.437,-92.14 4.789,-137.88 1.559,-11.45 18.949,-6.57 17.399,4.8 v 0" /><path
         id="path104"
         style="fill:#ffffff;fill-opacity:1;fill-rule:nonzero;stroke:none"
         d="m 604.836,3545.33 c -10.547,9.66 -25.465,13.62 -39.113,16.52 -20.825,4.42 -42.215,6.38 -63.418,7.91 -47.297,3.38 -94.735,3.37 -142.098,5.27 -16.461,0.65 -34.168,0.41 -50.172,4.86 -11.199,3.13 -15.984,-14.27 -4.797,-17.39 12.961,-3.61 27.016,-4.08 40.375,-4.83 20.848,-1.17 41.742,-1.58 62.621,-2.12 46.098,-1.19 92.993,-1.34 138.649,-8.55 14.14,-2.22 34.09,-4.26 45.199,-14.43 8.543,-7.82 21.344,4.9 12.754,12.76 v 0" /><path
         id="path106"
         style="fill:#ffffff;fill-opacity:1;fill-rule:nonzero;stroke:none"
         d="m 1648.65,2639.59 c -1.43,2.72 0.04,-0.48 -0.73,1.6 -0.66,1.78 -1.21,3.6 -1.75,5.41 -1.33,4.52 -2.37,9.14 -3.36,13.75 -2.88,13.63 -4.96,27.45 -6.67,41.28 -5.17,41.79 -7.35,83.99 -7.4,126.09 -0.13,105.43 12,216.21 56.02,313.12 23.91,52.64 58.33,101 106.55,133.87 9.54,6.5 0.52,22.14 -9.1,15.57 -91.55,-62.4 -134.91,-171.6 -155.05,-276.67 -18.9,-98.63 -21.33,-201.57 -10.31,-301.31 1.97,-17.85 4.34,-35.7 7.86,-53.3 1.91,-9.54 3.79,-19.81 8.37,-28.51 5.4,-10.28 20.98,-1.17 15.57,9.1 v 0" /><path
         id="path108"
         style="fill:#ffffff;fill-opacity:1;fill-rule:nonzero;stroke:none"
         d="m 899.875,2357.71 c 13.988,15.24 25.391,33.29 37.738,49.83 22.875,30.64 46.645,60.6 71.767,89.44 69.16,79.38 148.69,151.79 241.62,202.33 57.88,31.48 120.93,53.72 186.5,61.75 11.37,1.39 11.51,19.45 0,18.04 -116.13,-14.23 -221.05,-69.41 -310.97,-142.46 -73.3,-59.54 -136.464,-130.37 -193.487,-205.38 -15.277,-20.09 -29.832,-43.26 -45.93,-60.8 -7.84,-8.54 4.883,-21.33 12.762,-12.75 v 0" /><path
         id="path110"
         style="fill:#ffffff;fill-opacity:1;fill-rule:nonzero;stroke:none"
         d="m 801.289,2853.59 c 100.027,68.13 213.641,126.1 337.441,125.79 11.61,-0.03 11.62,18.01 0,18.04 -126.94,0.31 -243.906,-58.34 -346.546,-128.25 -9.539,-6.49 -0.524,-22.14 9.105,-15.58 v 0" /><path
         id="path112"
         style="fill:#ffffff;fill-opacity:1;fill-rule:nonzero;stroke:none"
         d="m 1331.58,2240.67 c 39.57,61.12 101.07,107.89 161.55,146.77 65.17,41.89 135.88,77.51 210,100.53 31.34,9.74 64.08,17.82 97.1,17.75 11.61,-0.02 11.63,18.03 0,18.05 -66.69,0.13 -133.96,-26.76 -193.68,-53.94 -74.87,-34.06 -146.81,-77.39 -209.45,-130.89 -30.58,-26.13 -59.17,-55.29 -81.1,-89.15 -6.33,-9.78 9.28,-18.83 15.58,-9.12 v 0" /><path
         id="path114"
         style="fill:#ffffff;fill-opacity:1;fill-rule:nonzero;stroke:none"
         d="m 228.586,3107.31 c 192.91,57.16 375.16,144.33 557.836,227.41 10.558,4.8 1.398,20.36 -9.106,15.58 -181.285,-82.44 -362.086,-168.86 -553.527,-225.58 -11.105,-3.29 -6.383,-20.72 4.797,-17.41 v 0" /><path
         id="path116"
         style="fill:#ffffff;fill-opacity:1;fill-rule:nonzero;stroke:none"
         d="m 1262.55,2916.9 c -12.51,57.29 -13.54,117.66 -11.34,176.02 2.68,71.11 12,143.14 34.42,210.91 11.37,34.38 26.52,68.38 48.86,97.13 7.04,9.06 -5.64,21.92 -12.76,12.75 -42.51,-54.73 -62.85,-124.12 -74.93,-191.4 -12.84,-71.58 -16.96,-145.13 -13.01,-217.72 1.68,-30.98 4.74,-62.14 11.37,-92.48 2.48,-11.34 19.88,-6.53 17.39,4.79 v 0" /><path
         id="path118"
         style="fill:#ffffff;fill-opacity:1;fill-rule:nonzero;stroke:none"
         d="m 967.832,3602.86 c -11.605,12.54 -11.605,33.94 -14.164,49.9 -3.383,21.14 -6.953,42.24 -10.699,63.31 -7.352,41.37 -15.422,82.6 -24.141,123.71 -2.406,11.35 -19.797,6.55 -17.394,-4.8 9.367,-44.2 17.996,-88.56 25.793,-133.08 3.828,-21.85 7.468,-43.76 10.906,-65.68 2.648,-16.86 4.914,-33.12 16.941,-46.11 7.906,-8.55 20.641,4.24 12.758,12.75 v 0" /><path
         id="path120"
         style="fill:#544ba9;fill-opacity:1;fill-rule:nonzero;stroke:none"
         d="M 12484.3,1902.07 H 2678.86 v 6868.3 h 9805.44 v -6868.3" /><path
         id="path122"
         style="fill:#ffffff;fill-opacity:1;fill-rule:nonzero;stroke:none"
         d="M 12039.9,2525.83 H 3123.19 V 8448.52 H 12039.9 V 2525.83" /><path
         id="path124"
         style="fill:#c9bee4;fill-opacity:1;fill-rule:nonzero;stroke:none"
         d="M 12039.9,2591.5 H 6049.02 v 438.34 H 12039.9 V 2591.5" /><path
         id="path126"
         style="fill:#ffffff;fill-opacity:1;fill-rule:nonzero;stroke:none"
         d="M 11805.1,2925.65 H 6263.18 v 45.65 h 5541.92 v -45.65" /><path
         id="path128"
         style="fill:#ffffff;fill-opacity:1;fill-rule:nonzero;stroke:none"
         d="M 11805.1,2841.96 H 6263.18 v 45.66 h 5541.92 v -45.66" /><path
         id="path130"
         style="fill:#ffffff;fill-opacity:1;fill-rule:nonzero;stroke:none"
         d="M 11805.1,2763.98 H 6263.18 v 45.65 h 5541.92 v -45.65" /><path
         id="path132"
         style="fill:#ffffff;fill-opacity:1;fill-rule:nonzero;stroke:none"
         d="M 11805.1,2680.29 H 6263.18 v 45.66 h 5541.92 v -45.66" /><path
         id="path134"
         style="fill:#978dce;fill-opacity:1;fill-rule:nonzero;stroke:none"
         d="M 6049.02,3029.84 H 3123.19 V 4585.75 H 6049.02 V 3029.84" /><path
         id="path136"
         style="fill:#978dce;fill-opacity:1;fill-rule:nonzero;stroke:none"
         d="M 12698.6,780.402 H 2359.17 l -76.04,198.5 H 12698.6 v -198.5" /><path
         id="path138"
         style="fill:#544ba9;fill-opacity:1;fill-rule:nonzero;stroke:none"
         d="M 9867.7,940.5 H 5295.44 c -53.82,0 -97.45,43.703 -97.45,97.5 v 155.3 c 0,53.8 43.63,97.44 97.45,97.44 H 9867.7 c 53.81,0 97.44,-43.64 97.44,-97.44 V 1038 c 0,-53.797 -43.63,-97.5 -97.44,-97.5" /><path
         id="path140"
         style="fill:#544ba9;fill-opacity:1;fill-rule:nonzero;stroke:none"
         d="M 8345.97,1290.74 H 6817.16 l 357.81,611.33 h 813.2 l 357.8,-611.33" /><path
         id="path142"
         style="fill:#ddd3ed;fill-opacity:1;fill-rule:nonzero;stroke:none"
         d="M 6023.24,5290.08 H 3529.49 v 54.14 h 2493.75 v -54.14" /><path
         id="path144"
         style="fill:#ddd3ed;fill-opacity:1;fill-rule:nonzero;stroke:none"
         d="M 6023.24,5190.82 H 3529.49 v 54.14 h 2493.75 v -54.14" /><path
         id="path146"
         style="fill:#ddd3ed;fill-opacity:1;fill-rule:nonzero;stroke:none"
         d="M 6023.24,5098.33 H 3529.49 v 54.14 h 2493.75 v -54.14" /><path
         id="path148"
         style="fill:#ddd3ed;fill-opacity:1;fill-rule:nonzero;stroke:none"
         d="M 6023.24,4999.07 H 3529.49 v 54.14 h 2493.75 v -54.14" /><path
         id="path150"
         style="fill:#ddd3ed;fill-opacity:1;fill-rule:nonzero;stroke:none"
         d="M 6023.24,4906.58 H 3529.49 v 54.14 h 2493.75 v -54.14" /><path
         id="path152"
         style="fill:#ddd3ed;fill-opacity:1;fill-rule:nonzero;stroke:none"
         d="M 6023.24,4807.32 H 3529.49 v 54.15 h 2493.75 v -54.15" /><path
         id="path154"
         style="fill:#ddd3ed;fill-opacity:1;fill-rule:nonzero;stroke:none"
         d="M 6023.24,4714.83 H 3529.49 v 54.14 h 2493.75 v -54.14" /><path
         id="path156"
         style="fill:#ddd3ed;fill-opacity:1;fill-rule:nonzero;stroke:none"
         d="M 6023.24,4615.58 H 3529.49 v 54.14 h 2493.75 v -54.14" /><path
         id="path158"
         style="fill:#ddd3ed;fill-opacity:1;fill-rule:nonzero;stroke:none"
         d="M 6023.24,2917.16 H 3529.49 v 54.14 h 2493.75 v -54.14" /><path
         id="path160"
         style="fill:#ddd3ed;fill-opacity:1;fill-rule:nonzero;stroke:none"
         d="M 6023.24,2817.9 H 3529.49 v 54.14 h 2493.75 v -54.14" /><path
         id="path162"
         style="fill:#ddd3ed;fill-opacity:1;fill-rule:nonzero;stroke:none"
         d="M 6023.24,2725.41 H 3529.49 v 54.14 h 2493.75 v -54.14" /><path
         id="path164"
         style="fill:#ddd3ed;fill-opacity:1;fill-rule:nonzero;stroke:none"
         d="M 6023.24,2626.15 H 3529.49 v 54.14 h 2493.75 v -54.14" /><path
         id="path166"
         style="fill:#acc0e7;fill-opacity:1;fill-rule:nonzero;stroke:none"
         d="M 6023.24,6272.71 H 3529.49 v 54.14 h 2493.75 v -54.14" /><path
         id="path168"
         style="fill:#acc0e7;fill-opacity:1;fill-rule:nonzero;stroke:none"
         d="M 6023.24,6173.45 H 3529.49 v 54.14 h 2493.75 v -54.14" /><path
         id="path170"
         style="fill:#acc0e7;fill-opacity:1;fill-rule:nonzero;stroke:none"
         d="M 6023.24,6080.96 H 3529.49 v 54.14 h 2493.75 v -54.14" /><path
         id="path172"
         style="fill:#acc0e7;fill-opacity:1;fill-rule:nonzero;stroke:none"
         d="M 6023.24,5981.7 H 3529.49 v 54.14 h 2493.75 v -54.14" /><path
         id="path174"
         style="fill:#acc0e7;fill-opacity:1;fill-rule:nonzero;stroke:none"
         d="M 6023.24,5889.21 H 3529.49 v 54.14 h 2493.75 v -54.14" /><path
         id="path176"
         style="fill:#acc0e7;fill-opacity:1;fill-rule:nonzero;stroke:none"
         d="M 6023.24,5789.95 H 3529.49 v 54.14 h 2493.75 v -54.14" /><path
         id="path178"
         style="fill:#acc0e7;fill-opacity:1;fill-rule:nonzero;stroke:none"
         d="M 6023.24,5697.46 H 3529.49 v 54.14 h 2493.75 v -54.14" /><path
         id="path180"
         style="fill:#acc0e7;fill-opacity:1;fill-rule:nonzero;stroke:none"
         d="M 6023.24,5598.2 H 3529.49 v 54.14 h 2493.75 v -54.14" /><path
         id="path182"
         style="fill:#978dce;fill-opacity:1;fill-rule:nonzero;stroke:none"
         d="m 1656,609.5 h 758.87 V 8834.69 H 1656 V 609.5" /><path
         id="path184"
         style="fill:#ffffff;fill-opacity:1;fill-rule:nonzero;stroke:none"
         d="m 1887.91,1221.2 h 526.96 v -51.6 h -526.96 v 51.6" /><path
         id="path186"
         style="fill:#ffffff;fill-opacity:1;fill-rule:nonzero;stroke:none"
         d="m 1887.91,2666.65 h 526.96 v -51.57 h -526.96 v 51.57" /><path
         id="path188"
         style="fill:#ffffff;fill-opacity:1;fill-rule:nonzero;stroke:none"
         d="m 2151.39,1403.19 h 263.48 v -25.78 h -263.48 v 25.78" /><path
         id="path190"
         style="fill:#ffffff;fill-opacity:1;fill-rule:nonzero;stroke:none"
         d="m 2151.39,1557.9 h 263.48 v -25.78 h -263.48 v 25.78" /><path
         id="path192"
         style="fill:#ffffff;fill-opacity:1;fill-rule:nonzero;stroke:none"
         d="m 2151.39,1712.62 h 263.48 v -25.79 h -263.48 v 25.79" /><path
         id="path194"
         style="fill:#ffffff;fill-opacity:1;fill-rule:nonzero;stroke:none"
         d="m 2151.39,1867.32 h 263.48 v -25.79 h -263.48 v 25.79" /><path
         id="path196"
         style="fill:#ffffff;fill-opacity:1;fill-rule:nonzero;stroke:none"
         d="m 2151.39,2022.03 h 263.48 v -25.78 h -263.48 v 25.78" /><path
         id="path198"
         style="fill:#ffffff;fill-opacity:1;fill-rule:nonzero;stroke:none"
         d="m 2151.39,2176.74 h 263.48 v -25.78 h -263.48 v 25.78" /><path
         id="path200"
         style="fill:#ffffff;fill-opacity:1;fill-rule:nonzero;stroke:none"
         d="m 2151.39,2331.45 h 263.48 v -25.79 h -263.48 v 25.79" /><path
         id="path202"
         style="fill:#ffffff;fill-opacity:1;fill-rule:nonzero;stroke:none"
         d="m 2151.39,2486.16 h 263.48 v -25.79 h -263.48 v 25.79" /><path
         id="path204"
         style="fill:#ffffff;fill-opacity:1;fill-rule:nonzero;stroke:none"
         d="m 1887.91,2666.65 h 526.96 v -51.57 h -526.96 v 51.57" /><path
         id="path206"
         style="fill:#ffffff;fill-opacity:1;fill-rule:nonzero;stroke:none"
         d="m 1887.91,4112.12 h 526.96 v -51.57 h -526.96 v 51.57" /><path
         id="path208"
         style="fill:#ffffff;fill-opacity:1;fill-rule:nonzero;stroke:none"
         d="m 2151.39,2848.66 h 263.48 v -25.78 h -263.48 v 25.78" /><path
         id="path210"
         style="fill:#ffffff;fill-opacity:1;fill-rule:nonzero;stroke:none"
         d="m 2151.39,3003.37 h 263.48 v -25.78 h -263.48 v 25.78" /><path
         id="path212"
         style="fill:#ffffff;fill-opacity:1;fill-rule:nonzero;stroke:none"
         d="m 2151.39,3158.08 h 263.48 v -25.78 h -263.48 v 25.78" /><path
         id="path214"
         style="fill:#ffffff;fill-opacity:1;fill-rule:nonzero;stroke:none"
         d="m 2151.39,3312.79 h 263.48 V 3287 h -263.48 v 25.79" /><path
         id="path216"
         style="fill:#ffffff;fill-opacity:1;fill-rule:nonzero;stroke:none"
         d="m 2151.39,3467.5 h 263.48 v -25.79 h -263.48 v 25.79" /><path
         id="path218"
         style="fill:#ffffff;fill-opacity:1;fill-rule:nonzero;stroke:none"
         d="m 2151.39,3622.21 h 263.48 v -25.78 h -263.48 v 25.78" /><path
         id="path220"
         style="fill:#ffffff;fill-opacity:1;fill-rule:nonzero;stroke:none"
         d="m 2151.39,3776.91 h 263.48 v -25.78 h -263.48 v 25.78" /><path
         id="path222"
         style="fill:#ffffff;fill-opacity:1;fill-rule:nonzero;stroke:none"
         d="m 2151.39,3931.62 h 263.48 v -25.78 h -263.48 v 25.78" /><path
         id="path224"
         style="fill:#ffffff;fill-opacity:1;fill-rule:nonzero;stroke:none"
         d="m 1887.91,4112.12 h 526.96 v -51.57 h -526.96 v 51.57" /><path
         id="path226"
         style="fill:#ffffff;fill-opacity:1;fill-rule:nonzero;stroke:none"
         d="m 1887.91,5557.58 h 526.96 v -51.56 h -526.96 v 51.56" /><path
         id="path228"
         style="fill:#ffffff;fill-opacity:1;fill-rule:nonzero;stroke:none"
         d="m 2151.39,4294.13 h 263.48 v -25.79 h -263.48 v 25.79" /><path
         id="path230"
         style="fill:#ffffff;fill-opacity:1;fill-rule:nonzero;stroke:none"
         d="m 2151.39,4448.84 h 263.48 v -25.79 h -263.48 v 25.79" /><path
         id="path232"
         style="fill:#ffffff;fill-opacity:1;fill-rule:nonzero;stroke:none"
         d="m 2151.39,4603.55 h 263.48 v -25.79 h -263.48 v 25.79" /><path
         id="path234"
         style="fill:#ffffff;fill-opacity:1;fill-rule:nonzero;stroke:none"
         d="m 2151.39,4758.25 h 263.48 v -25.78 h -263.48 v 25.78" /><path
         id="path236"
         style="fill:#ffffff;fill-opacity:1;fill-rule:nonzero;stroke:none"
         d="m 2151.39,4912.96 h 263.48 v -25.78 h -263.48 v 25.78" /><path
         id="path238"
         style="fill:#ffffff;fill-opacity:1;fill-rule:nonzero;stroke:none"
         d="m 2151.39,5067.68 h 263.48 v -25.79 h -263.48 v 25.79" /><path
         id="path240"
         style="fill:#ffffff;fill-opacity:1;fill-rule:nonzero;stroke:none"
         d="m 2151.39,5222.38 h 263.48 v -25.79 h -263.48 v 25.79" /><path
         id="path242"
         style="fill:#ffffff;fill-opacity:1;fill-rule:nonzero;stroke:none"
         d="m 2151.39,5377.09 h 263.48 v -25.78 h -263.48 v 25.78" /><path
         id="path244"
         style="fill:#ffffff;fill-opacity:1;fill-rule:nonzero;stroke:none"
         d="m 1887.91,5557.58 h 526.96 v -51.56 h -526.96 v 51.56" /><path
         id="path246"
         style="fill:#ffffff;fill-opacity:1;fill-rule:nonzero;stroke:none"
         d="m 1887.91,7003.05 h 526.96 v -51.57 h -526.96 v 51.57" /><path
         id="path248"
         style="fill:#ffffff;fill-opacity:1;fill-rule:nonzero;stroke:none"
         d="m 2151.39,5739.6 h 263.48 v -25.79 h -263.48 v 25.79" /><path
         id="path250"
         style="fill:#ffffff;fill-opacity:1;fill-rule:nonzero;stroke:none"
         d="m 2151.39,5894.3 h 263.48 v -25.78 h -263.48 v 25.78" /><path
         id="path252"
         style="fill:#ffffff;fill-opacity:1;fill-rule:nonzero;stroke:none"
         d="m 2151.39,6049.01 h 263.48 v -25.78 h -263.48 v 25.78" /><path
         id="path254"
         style="fill:#ffffff;fill-opacity:1;fill-rule:nonzero;stroke:none"
         d="m 2151.39,6203.72 h 263.48 v -25.78 h -263.48 v 25.78" /><path
         id="path256"
         style="fill:#ffffff;fill-opacity:1;fill-rule:nonzero;stroke:none"
         d="m 2151.39,6358.43 h 263.48 v -25.79 h -263.48 v 25.79" /><path
         id="path258"
         style="fill:#ffffff;fill-opacity:1;fill-rule:nonzero;stroke:none"
         d="m 2151.39,6513.14 h 263.48 v -25.79 h -263.48 v 25.79" /><path
         id="path260"
         style="fill:#ffffff;fill-opacity:1;fill-rule:nonzero;stroke:none"
         d="m 2151.39,6667.85 h 263.48 v -25.79 h -263.48 v 25.79" /><path
         id="path262"
         style="fill:#ffffff;fill-opacity:1;fill-rule:nonzero;stroke:none"
         d="m 2151.39,6822.55 h 263.48 v -25.78 h -263.48 v 25.78" /><path
         id="path264"
         style="fill:#ffffff;fill-opacity:1;fill-rule:nonzero;stroke:none"
         d="m 1887.91,7003.05 h 526.96 v -51.57 h -526.96 v 51.57" /><path
         id="path266"
         style="fill:#ffffff;fill-opacity:1;fill-rule:nonzero;stroke:none"
         d="m 1887.91,8448.52 h 526.96 v -51.58 h -526.96 v 51.58" /><path
         id="path268"
         style="fill:#ffffff;fill-opacity:1;fill-rule:nonzero;stroke:none"
         d="m 2151.39,7185.06 h 263.48 v -25.79 h -263.48 v 25.79" /><path
         id="path270"
         style="fill:#ffffff;fill-opacity:1;fill-rule:nonzero;stroke:none"
         d="m 2151.39,7339.77 h 263.48 v -25.79 h -263.48 v 25.79" /><path
         id="path272"
         style="fill:#ffffff;fill-opacity:1;fill-rule:nonzero;stroke:none"
         d="m 2151.39,7494.48 h 263.48 v -25.79 h -263.48 v 25.79" /><path
         id="path274"
         style="fill:#ffffff;fill-opacity:1;fill-rule:nonzero;stroke:none"
         d="m 2151.39,7649.19 h 263.48 v -25.79 h -263.48 v 25.79" /><path
         id="path276"
         style="fill:#ffffff;fill-opacity:1;fill-rule:nonzero;stroke:none"
         d="m 2151.39,7803.89 h 263.48 v -25.78 h -263.48 v 25.78" /><path
         id="path278"
         style="fill:#ffffff;fill-opacity:1;fill-rule:nonzero;stroke:none"
         d="m 2151.39,7958.6 h 263.48 v -25.78 h -263.48 v 25.78" /><path
         id="path280"
         style="fill:#ffffff;fill-opacity:1;fill-rule:nonzero;stroke:none"
         d="m 2151.39,8113.31 h 263.48 v -25.78 h -263.48 v 25.78" /><path
         id="path282"
         style="fill:#ffffff;fill-opacity:1;fill-rule:nonzero;stroke:none"
         d="m 2151.39,8268.02 h 263.48 v -25.78 h -263.48 v 25.78" /><path
         id="path284"
         style="fill:#978dce;fill-opacity:1;fill-rule:nonzero;stroke:none"
         d="M 1845.71,9846.66 V 9087.78 H 12446.6 v 758.88 H 1845.71" /><path
         id="path286"
         style="fill:#ffffff;fill-opacity:1;fill-rule:nonzero;stroke:none"
         d="m 4603.56,9614.74 v -526.96 h -51.57 v 526.96 h 51.57" /><path
         id="path288"
         style="fill:#ffffff;fill-opacity:1;fill-rule:nonzero;stroke:none"
         d="m 6049.02,9614.74 v -526.96 h -51.56 v 526.96 h 51.56" /><path
         id="path290"
         style="fill:#ffffff;fill-opacity:1;fill-rule:nonzero;stroke:none"
         d="m 4785.57,9351.26 v -263.48 h -25.78 v 263.48 h 25.78" /><path
         id="path292"
         style="fill:#ffffff;fill-opacity:1;fill-rule:nonzero;stroke:none"
         d="m 4940.28,9351.26 v -263.48 h -25.79 v 263.48 h 25.79" /><path
         id="path294"
         style="fill:#ffffff;fill-opacity:1;fill-rule:nonzero;stroke:none"
         d="m 5094.99,9351.26 v -263.48 h -25.78 v 263.48 h 25.78" /><path
         id="path296"
         style="fill:#ffffff;fill-opacity:1;fill-rule:nonzero;stroke:none"
         d="m 5249.7,9351.26 v -263.48 h -25.79 v 263.48 h 25.79" /><path
         id="path298"
         style="fill:#ffffff;fill-opacity:1;fill-rule:nonzero;stroke:none"
         d="m 5404.41,9351.26 v -263.48 h -25.79 v 263.48 h 25.79" /><path
         id="path300"
         style="fill:#ffffff;fill-opacity:1;fill-rule:nonzero;stroke:none"
         d="m 5559.11,9351.26 v -263.48 h -25.78 v 263.48 h 25.78" /><path
         id="path302"
         style="fill:#ffffff;fill-opacity:1;fill-rule:nonzero;stroke:none"
         d="m 5713.82,9351.26 v -263.48 h -25.78 v 263.48 h 25.78" /><path
         id="path304"
         style="fill:#ffffff;fill-opacity:1;fill-rule:nonzero;stroke:none"
         d="m 5868.53,9351.26 v -263.48 h -25.78 v 263.48 h 25.78" /><path
         id="path306"
         style="fill:#ffffff;fill-opacity:1;fill-rule:nonzero;stroke:none"
         d="m 6049.02,9614.74 v -526.96 h -51.56 v 526.96 h 51.56" /><path
         id="path308"
         style="fill:#ffffff;fill-opacity:1;fill-rule:nonzero;stroke:none"
         d="m 3151.87,9614.74 v -526.96 h -51.58 v 526.96 h 51.58" /><path
         id="path310"
         style="fill:#ffffff;fill-opacity:1;fill-rule:nonzero;stroke:none"
         d="m 3333.87,9351.26 v -263.48 h -25.78 v 263.48 h 25.78" /><path
         id="path312"
         style="fill:#ffffff;fill-opacity:1;fill-rule:nonzero;stroke:none"
         d="m 3488.59,9351.26 v -263.48 h -25.79 v 263.48 h 25.79" /><path
         id="path314"
         style="fill:#ffffff;fill-opacity:1;fill-rule:nonzero;stroke:none"
         d="m 3643.29,9351.26 v -263.48 h -25.78 v 263.48 h 25.78" /><path
         id="path316"
         style="fill:#ffffff;fill-opacity:1;fill-rule:nonzero;stroke:none"
         d="m 3798,9351.26 v -263.48 h -25.78 v 263.48 H 3798" /><path
         id="path318"
         style="fill:#ffffff;fill-opacity:1;fill-rule:nonzero;stroke:none"
         d="m 3952.71,9351.26 v -263.48 h -25.78 v 263.48 h 25.78" /><path
         id="path320"
         style="fill:#ffffff;fill-opacity:1;fill-rule:nonzero;stroke:none"
         d="m 4107.42,9351.26 v -263.48 h -25.79 v 263.48 h 25.79" /><path
         id="path322"
         style="fill:#ffffff;fill-opacity:1;fill-rule:nonzero;stroke:none"
         d="m 4262.13,9351.26 v -263.48 h -25.79 v 263.48 h 25.79" /><path
         id="path324"
         style="fill:#ffffff;fill-opacity:1;fill-rule:nonzero;stroke:none"
         d="m 4416.84,9351.26 v -263.48 h -25.79 v 263.48 h 25.79" /><path
         id="path326"
         style="fill:#ffffff;fill-opacity:1;fill-rule:nonzero;stroke:none"
         d="m 4597.33,9614.74 v -526.96 h -51.57 v 526.96 h 51.57" /><path
         id="path328"
         style="fill:#ffffff;fill-opacity:1;fill-rule:nonzero;stroke:none"
         d="m 7494.49,9614.74 v -526.96 h -51.57 v 526.96 h 51.57" /><path
         id="path330"
         style="fill:#ffffff;fill-opacity:1;fill-rule:nonzero;stroke:none"
         d="m 6231.04,9351.26 v -263.48 h -25.79 v 263.48 h 25.79" /><path
         id="path332"
         style="fill:#ffffff;fill-opacity:1;fill-rule:nonzero;stroke:none"
         d="m 6385.74,9351.26 v -263.48 h -25.78 v 263.48 h 25.78" /><path
         id="path334"
         style="fill:#ffffff;fill-opacity:1;fill-rule:nonzero;stroke:none"
         d="m 6540.46,9351.26 v -263.48 h -25.79 v 263.48 h 25.79" /><path
         id="path336"
         style="fill:#ffffff;fill-opacity:1;fill-rule:nonzero;stroke:none"
         d="m 6695.16,9351.26 v -263.48 h -25.78 v 263.48 h 25.78" /><path
         id="path338"
         style="fill:#ffffff;fill-opacity:1;fill-rule:nonzero;stroke:none"
         d="m 6849.87,9351.26 v -263.48 h -25.78 v 263.48 h 25.78" /><path
         id="path340"
         style="fill:#ffffff;fill-opacity:1;fill-rule:nonzero;stroke:none"
         d="m 7004.58,9351.26 v -263.48 h -25.78 v 263.48 h 25.78" /><path
         id="path342"
         style="fill:#ffffff;fill-opacity:1;fill-rule:nonzero;stroke:none"
         d="m 7159.29,9351.26 v -263.48 h -25.79 v 263.48 h 25.79" /><path
         id="path344"
         style="fill:#ffffff;fill-opacity:1;fill-rule:nonzero;stroke:none"
         d="m 7314,9351.26 v -263.48 h -25.79 v 263.48 H 7314" /><path
         id="path346"
         style="fill:#ffffff;fill-opacity:1;fill-rule:nonzero;stroke:none"
         d="m 7494.49,9614.74 v -526.96 h -51.57 v 526.96 h 51.57" /><path
         id="path348"
         style="fill:#ffffff;fill-opacity:1;fill-rule:nonzero;stroke:none"
         d="m 8939.95,9614.74 v -526.96 h -51.56 v 526.96 h 51.56" /><path
         id="path350"
         style="fill:#ffffff;fill-opacity:1;fill-rule:nonzero;stroke:none"
         d="m 7676.5,9351.26 v -263.48 h -25.79 v 263.48 h 25.79" /><path
         id="path352"
         style="fill:#ffffff;fill-opacity:1;fill-rule:nonzero;stroke:none"
         d="m 7831.21,9351.26 v -263.48 h -25.78 v 263.48 h 25.78" /><path
         id="path354"
         style="fill:#ffffff;fill-opacity:1;fill-rule:nonzero;stroke:none"
         d="m 7985.92,9351.26 v -263.48 h -25.79 v 263.48 h 25.79" /><path
         id="path356"
         style="fill:#ffffff;fill-opacity:1;fill-rule:nonzero;stroke:none"
         d="m 8140.63,9351.26 v -263.48 h -25.79 v 263.48 h 25.79" /><path
         id="path358"
         style="fill:#ffffff;fill-opacity:1;fill-rule:nonzero;stroke:none"
         d="m 8295.33,9351.26 v -263.48 h -25.78 v 263.48 h 25.78" /><path
         id="path360"
         style="fill:#ffffff;fill-opacity:1;fill-rule:nonzero;stroke:none"
         d="m 8450.05,9351.26 v -263.48 h -25.79 v 263.48 h 25.79" /><path
         id="path362"
         style="fill:#ffffff;fill-opacity:1;fill-rule:nonzero;stroke:none"
         d="m 8604.76,9351.26 v -263.48 h -25.79 v 263.48 h 25.79" /><path
         id="path364"
         style="fill:#ffffff;fill-opacity:1;fill-rule:nonzero;stroke:none"
         d="m 8759.46,9351.26 v -263.48 h -25.79 v 263.48 h 25.79" /><path
         id="path366"
         style="fill:#ffffff;fill-opacity:1;fill-rule:nonzero;stroke:none"
         d="m 8939.95,9614.74 v -526.96 h -51.56 v 526.96 h 51.56" /><path
         id="path368"
         style="fill:#ffffff;fill-opacity:1;fill-rule:nonzero;stroke:none"
         d="m 10385.4,9614.74 v -526.96 h -51.6 v 526.96 h 51.6" /><path
         id="path370"
         style="fill:#ffffff;fill-opacity:1;fill-rule:nonzero;stroke:none"
         d="m 9121.96,9351.26 v -263.48 h -25.78 v 263.48 h 25.78" /><path
         id="path372"
         style="fill:#ffffff;fill-opacity:1;fill-rule:nonzero;stroke:none"
         d="m 9276.67,9351.26 v -263.48 h -25.78 v 263.48 h 25.78" /><path
         id="path374"
         style="fill:#ffffff;fill-opacity:1;fill-rule:nonzero;stroke:none"
         d="m 9431.39,9351.26 v -263.48 h -25.79 v 263.48 h 25.79" /><path
         id="path376"
         style="fill:#ffffff;fill-opacity:1;fill-rule:nonzero;stroke:none"
         d="m 9586.09,9351.26 v -263.48 h -25.79 v 263.48 h 25.79" /><path
         id="path378"
         style="fill:#ffffff;fill-opacity:1;fill-rule:nonzero;stroke:none"
         d="m 9740.8,9351.26 v -263.48 h -25.78 v 263.48 h 25.78" /><path
         id="path380"
         style="fill:#ffffff;fill-opacity:1;fill-rule:nonzero;stroke:none"
         d="m 9895.51,9351.26 v -263.48 h -25.78 v 263.48 h 25.78" /><path
         id="path382"
         style="fill:#ffffff;fill-opacity:1;fill-rule:nonzero;stroke:none"
         d="m 10050.2,9351.26 v -263.48 h -25.8 v 263.48 h 25.8" /><path
         id="path384"
         style="fill:#ffffff;fill-opacity:1;fill-rule:nonzero;stroke:none"
         d="m 10204.9,9351.26 v -263.48 h -25.8 v 263.48 h 25.8" /><path
         id="path386"
         style="fill:#ffffff;fill-opacity:1;fill-rule:nonzero;stroke:none"
         d="m 10385.4,9614.74 v -526.96 h -51.6 v 526.96 h 51.6" /><path
         id="path388"
         style="fill:#ffffff;fill-opacity:1;fill-rule:nonzero;stroke:none"
         d="m 11830.9,9614.74 v -526.96 h -51.6 v 526.96 h 51.6" /><path
         id="path390"
         style="fill:#ffffff;fill-opacity:1;fill-rule:nonzero;stroke:none"
         d="m 10567.4,9351.26 v -263.48 h -25.7 v 263.48 h 25.7" /><path
         id="path392"
         style="fill:#ffffff;fill-opacity:1;fill-rule:nonzero;stroke:none"
         d="m 10722.1,9351.26 v -263.48 h -25.7 v 263.48 h 25.7" /><path
         id="path394"
         style="fill:#ffffff;fill-opacity:1;fill-rule:nonzero;stroke:none"
         d="m 10876.8,9351.26 v -263.48 h -25.7 v 263.48 h 25.7" /><path
         id="path396"
         style="fill:#ffffff;fill-opacity:1;fill-rule:nonzero;stroke:none"
         d="m 11031.6,9351.26 v -263.48 h -25.8 v 263.48 h 25.8" /><path
         id="path398"
         style="fill:#ffffff;fill-opacity:1;fill-rule:nonzero;stroke:none"
         d="m 11186.3,9351.26 v -263.48 h -25.8 v 263.48 h 25.8" /><path
         id="path400"
         style="fill:#ffffff;fill-opacity:1;fill-rule:nonzero;stroke:none"
         d="m 11341,9351.26 v -263.48 h -25.8 v 263.48 h 25.8" /><path
         id="path402"
         style="fill:#ffffff;fill-opacity:1;fill-rule:nonzero;stroke:none"
         d="m 11495.7,9351.26 v -263.48 h -25.8 v 263.48 h 25.8" /><path
         id="path404"
         style="fill:#ffffff;fill-opacity:1;fill-rule:nonzero;stroke:none"
         d="m 11650.4,9351.26 v -263.48 h -25.8 v 263.48 h 25.8" /><path
         id="path406"
         style="fill:#b9b9e3;fill-opacity:1;fill-rule:nonzero;stroke:none"
         d="M 2359.17,143.699 C 2359.17,64.3008 2831.06,0 3413.16,0 c 582.1,0 1053.98,64.3008 1053.98,143.699 0,79.403 -471.88,143.703 -1053.98,143.703 -582.1,0 -1053.99,-64.3 -1053.99,-143.703" /><path
         id="path408"
         style="fill:#90c3e2;fill-opacity:1;fill-rule:nonzero;stroke:none"
         d="M 3948.59,280.801 3625.1,246.902 c 0,0 -6.16,-21.5 -86.27,348.2 -80.1,369.699 -479.6,2135.058 -479.6,2135.058 h -65.72 L 3021.24,801.5 c 0,0 89.35,-129.398 12.32,-206.398 64.7,-110.899 55.46,-237.2 24.65,-252.7 -30.81,-15.402 -286.52,0 -348.15,-110.902 -36.96,305 -277.28,2621.89 -215.66,2831.39 l 1038.27,92.43 c 0,0 172.53,-2064.22 240.31,-2184.418 67.78,-120.101 123.24,-311.101 113.99,-415.902 -9.24,-104.699 61.62,-274.199 61.62,-274.199" /><path
         id="path410"
         style="fill:#1b3743;fill-opacity:1;fill-rule:nonzero;stroke:none"
         d="m 4256.69,105.203 h -607.97 c 0,0 -28.76,24.699 0,135.598 28.75,110.902 297.59,73.898 297.59,73.898 0,0 117.3,-55.398 142.98,-55.398 25.67,0 189.99,43.101 167.4,-154.098" /><path
         id="path412"
         style="fill:#1b3743;fill-opacity:1;fill-rule:nonzero;stroke:none"
         d="m 3149.1,89.8008 c 0,0 -369.71,-3.8008 -380.5,0 -10.78,3.8984 -67.01,60.1012 -33.89,105.5002 33.12,45.5 55.46,77.101 55.46,77.101 0,0 55.92,62.297 146.57,55.399 90.66,-6.899 131.48,-53.102 119.16,-83.199 0,0 129.4,-37.7 106.29,-116.301 -23.11,-78.5002 -13.09,-38.5002 -13.09,-38.5002" /><path
         id="path414"
         style="fill:#d2dddb;fill-opacity:1;fill-rule:nonzero;stroke:none"
         d="m 3474.13,3095.75 c 0,0 -390.25,-176.64 -706.56,-110.91 -258.79,65.73 -258.79,65.73 -258.79,65.73 l 53.4,1708.87 c 0,0 308.09,250.59 649.05,139.67 254.68,-106.8 262.9,-94.48 262.9,-94.48 V 3095.75" /><path
         id="path416"
         style="fill:#675ab2;fill-opacity:1;fill-rule:nonzero;stroke:none"
         d="m 2919.57,2865.71 c 0,0 61.62,1573.32 45.19,1680.13 -16.44,106.81 -135.56,225.93 -135.56,225.93 l -86.27,119.13 c 0,0 -349.17,-12.33 -340.96,-234.15 8.22,-221.83 45.19,-1622.61 45.19,-1622.61 0,0 4.11,-114.51 165.86,-137.62 161.75,-23.1 306.55,-30.81 306.55,-30.81" /><path
         id="path418"
         style="fill:#f4725b;fill-opacity:1;fill-rule:nonzero;stroke:none"
         d="m 4341.46,4241.65 c 0,0 40.91,79.21 23.01,138.66 -17.91,59.45 -1.67,155.73 25.38,155.92 27.06,0.21 27.15,-9.07 26.03,-71.84 -1.12,-62.76 52.88,-61.94 90.29,12.43 16.23,32.25 254.48,83.31 237.46,-103.89 -21.67,-238.34 -329.74,-186.43 -329.74,-186.43 0,0 -60.82,-28.09 -72.43,55.15" /><path
         id="path420"
         style="fill:#675ab2;fill-opacity:1;fill-rule:nonzero;stroke:none"
         d="m 4343.5,4308.36 c 0,0 103.4,-180.16 174.41,-167.35 -219.82,-253.56 -433.55,-572.55 -575.1,-470.21 -141.54,102.35 -396.14,377.77 -396.14,377.77 0,0 -245.33,907.5 -117.3,772.95 128.04,-134.54 523.61,-772.27 552.68,-796.38 29.05,-24.12 358.93,243.8 361.45,283.22" /><path
         id="path422"
         style="fill:#675ab2;fill-opacity:1;fill-rule:nonzero;stroke:none"
         d="m 3394.03,2947.87 -154.05,1548.67 c 0,0 -10.78,417.98 -150.96,447.25 191.02,-43.14 371.25,-87.8 419,-227.99 47.76,-140.18 77.03,-1274.98 64.7,-1718.63 -123.24,-49.3 -178.69,-49.3 -178.69,-49.3" /><path
         id="path424"
         style="fill:#2c2f7b;fill-opacity:1;fill-rule:nonzero;stroke:none"
         d="m 3219.96,4706.56 c 0,0 30.81,90.88 92.42,92.42 -60.07,100.13 -167.91,288.07 -466.75,212.59 -129.4,-43.13 -186.4,-240.31 -67.78,-368.17 70.86,43.13 141.72,26.19 141.72,26.19 0,0 -150.97,120.16 -135.56,177.15 15.4,57 129.39,141.72 340.44,80.11 64.7,-29.27 104.75,-232.61 95.51,-220.29" /><path
         id="path426"
         style="fill:#796ebe;fill-opacity:1;fill-rule:nonzero;stroke:none"
         d="m 3288.43,3291.29 h 1506.26 v 1084.5 H 3288.43 v -1084.5" /><path
         id="path428"
         style="fill:none;stroke:#ffffff;stroke-width:15.9847002;stroke-linecap:butt;stroke-linejoin:miter;stroke-miterlimit:10;stroke-dasharray:none;stroke-opacity:1"
         d="m 3374.43,3353.21 h 1334.25 v 960.66 H 3374.43 Z" /><path
         id="path430"
         style="fill:#f25a1a;fill-opacity:1;fill-rule:nonzero;stroke:none"
         d="m 4359.04,3833.54 c 0,-175.35 -142.14,-317.48 -317.48,-317.48 -175.34,0 -317.49,142.13 -317.49,317.48 0,175.34 142.15,317.49 317.49,317.49 175.34,0 317.48,-142.15 317.48,-317.49" /><path
         id="path432"
         style="fill:#ffffff;fill-opacity:1;fill-rule:nonzero;stroke:none"
         d="m 3934.81,4039.22 v -415.83 c 0,0 265.36,205.17 262.63,207.92 -2.74,2.73 -262.63,207.91 -262.63,207.91" /><path
         id="path434"
         style="fill:#f4725b;fill-opacity:1;fill-rule:nonzero;stroke:none"
         d="m 4506.17,4476.82 c 28.81,21.77 260.77,82.63 237.46,-103.89 -17.02,-136.14 -442.47,-51.05 -237.46,103.89" /><path
         id="path436"
         style="fill:#f57a5b;fill-opacity:1;fill-rule:nonzero;stroke:none"
         d="m 3565.89,3509 c 0,0 41.85,-46.45 62.36,-34.21 20.52,12.23 86.91,61.75 202.22,-37.43 15.07,-31.05 -43.33,-46.4 -86.31,-5.36 8.24,-26.49 -2.01,-128.74 91.25,-132.54 l 114.21,-9.82 c 5.82,-6.76 -46.9,-25.21 -46.9,-25.21 0,0 13.09,-13.68 -26.51,-34.17 -39.6,-20.48 -155.55,-55.45 -199.67,-1.3 -44.12,54.14 -84.82,109.7 -101.05,120.53 -16.23,10.83 -48.4,31.08 -48.4,31.08 0,0 -10.2,95.7 38.8,128.43" /><path
         id="path438"
         style="fill:#554ba9;fill-opacity:1;fill-rule:nonzero;stroke:none"
         d="m 2423.67,4749.82 c 0,0 90.18,25.75 298.6,-181.41 92.91,-195.48 120.28,-762.76 120.28,-762.76 0,0 827.01,-267.37 833.13,-274.46 -76.54,11.52 -177.76,-88.64 -102.77,-237.04 -141.19,107.27 -901.14,211.92 -1002.12,373.23 -100.98,161.3 -200.43,1035.94 -147.12,1082.44" /><path
         id="path440"
         style="fill:#ed5a42;fill-opacity:1;fill-rule:nonzero;stroke:none"
         d="m 3073.61,4851.36 c 0,0 -44.67,-63.16 -130.93,-21.56 -86.27,41.59 -100.13,63.15 -100.13,63.15 0,0 35.42,234.15 41.59,323.5 6.16,89.34 198.72,18.48 198.72,18.48 0,0 -16.95,-341.98 -9.25,-383.57" /><path
         id="path442"
         style="fill:#ed5a42;fill-opacity:1;fill-rule:nonzero;stroke:none"
         d="m 3226.12,5530.7 c 0,0 16.94,-57 13.86,-260.34 -3.08,-203.34 -58.53,-240.31 -263.42,-206.41 -204.87,33.88 -174.07,220.28 -150.96,371.25 23.11,150.96 266.5,284.98 400.52,95.5" /><path
         id="path444"
         style="fill:#100f0d;fill-opacity:1;fill-rule:nonzero;stroke:none"
         d="m 3316.57,5338.38 c 0,0 -16.65,-65.95 -76.21,-5.35 -59.57,60.58 -60.38,142.21 -40.87,159.68 0,0 -208.47,-213.14 -407.7,-154.33 -199.24,58.82 63.23,276.27 131.45,310.42 68.22,34.16 468.3,84.69 393.33,-310.42" /><path
         id="path446"
         style="fill:none;stroke:#494a4b;stroke-width:9.65583038;stroke-linecap:butt;stroke-linejoin:miter;stroke-miterlimit:10;stroke-dasharray:none;stroke-opacity:1"
         d="m 6049.02,2525.83 v 38.62" /><path
         id="path448"
         style="fill:none;stroke:#494a4b;stroke-width:9.65583038;stroke-linecap:butt;stroke-linejoin:miter;stroke-miterlimit:10;stroke-dasharray:77.9391, 77.9391;stroke-dashoffset:0;stroke-opacity:1"
         d="M 6049.02,2642.39 V 8370.92" /><path
         id="path450"
         style="fill:none;stroke:#494a4b;stroke-width:9.65583038;stroke-linecap:butt;stroke-linejoin:miter;stroke-miterlimit:10;stroke-dasharray:none;stroke-opacity:1"
         d="m 6049.02,8409.89 v 38.63" /><path
         id="path452"
         style="fill:none;stroke:#494a4b;stroke-width:9.65583038;stroke-linecap:butt;stroke-linejoin:miter;stroke-miterlimit:10;stroke-dasharray:none;stroke-opacity:1"
         d="m 3126.08,7791 h 38.62" /><path
         id="path454"
         style="fill:none;stroke:#494a4b;stroke-width:9.65583038;stroke-linecap:butt;stroke-linejoin:miter;stroke-miterlimit:10;stroke-dasharray:76.8401, 76.8401;stroke-dashoffset:0;stroke-opacity:1"
         d="M 3241.54,7791 H 11962.9" /><path
         id="path456"
         style="fill:none;stroke:#494a4b;stroke-width:9.65583038;stroke-linecap:butt;stroke-linejoin:miter;stroke-miterlimit:10;stroke-dasharray:none;stroke-opacity:1"
         d="m 12001.3,7791 h 38.6" /><path
         id="path458"
         style="fill:#978dce;fill-opacity:1;fill-rule:nonzero;stroke:none"
         d="M 12039.9,7920.67 H 3123.19 v 421.26 h 8916.71 v -421.26" /><path
         id="path460"
         style="fill:#c9bee4;fill-opacity:1;fill-rule:nonzero;stroke:none"
         d="M 12039.9,4566.27 H 6031.58 V 6122.18 H 12039.9 V 4566.27" /><path
         id="path462"
         style="fill:#f25a1a;fill-opacity:1;fill-rule:nonzero;stroke:none"
         d="m 8633.81,8078 h -551.76 v 99.22 h 551.76 V 8078" /><path
         id="path464"
         style="fill:#f25a1a;fill-opacity:1;fill-rule:nonzero;stroke:none"
         d="m 9302.8,8078 h -551.75 v 99.22 H 9302.8 V 8078" /><path
         id="path466"
         style="fill:#f25a1a;fill-opacity:1;fill-rule:nonzero;stroke:none"
         d="m 9971.8,8078 h -551.76 v 99.22 H 9971.8 V 8078" /><path
         id="path468"
         style="fill:#f25a1a;fill-opacity:1;fill-rule:nonzero;stroke:none"
         d="M 10640.8,8078 H 10089 v 99.22 h 551.8 V 8078" /><path
         id="path470"
         style="fill:#978dce;fill-opacity:1;fill-rule:nonzero;stroke:none"
         d="m 11871.8,3974.51 h -1022 c -42.3,0 -76.5,34.25 -76.5,76.5 v 4170.42 c 0,42.24 34.2,76.49 76.5,76.49 h 1022 c 42.2,0 76.5,-34.25 76.5,-76.49 V 4051.01 c 0,-42.25 -34.3,-76.5 -76.5,-76.5" /><path
         id="path472"
         style="fill:#f25a1a;fill-opacity:1;fill-rule:nonzero;stroke:none"
         d="m 11805.1,8090.2 h -889.3 v 87.02 h 889.3 v -87.02" /><path
         id="path474"
         style="fill:#ffffff;fill-opacity:1;fill-rule:nonzero;stroke:none"
         d="m 11805.1,7817.12 h -694.2 v 87.02 h 694.2 v -87.02" /><path
         id="path476"
         style="fill:#ffffff;fill-opacity:1;fill-rule:nonzero;stroke:none"
         d="m 11805.1,7544.04 h -694.2 v 87.02 h 694.2 v -87.02" /><path
         id="path478"
         style="fill:#ffffff;fill-opacity:1;fill-rule:nonzero;stroke:none"
         d="m 11805.1,7270.96 h -725.5 v 87.02 h 725.5 v -87.02" /><path
         id="path480"
         style="fill:#ffffff;fill-opacity:1;fill-rule:nonzero;stroke:none"
         d="m 11805.1,6997.88 h -725.5 v 87.02 h 725.5 v -87.02" /><path
         id="path482"
         style="fill:#ffffff;fill-opacity:1;fill-rule:nonzero;stroke:none"
         d="m 11805.1,6724.8 h -725.5 v 87.02 h 725.5 v -87.02" /><path
         id="path484"
         style="fill:#ffffff;fill-opacity:1;fill-rule:nonzero;stroke:none"
         d="m 11805.1,6451.71 h -725.5 v 87.03 h 725.5 v -87.03" /><path
         id="path486"
         style="fill:#ffffff;fill-opacity:1;fill-rule:nonzero;stroke:none"
         d="m 11805.1,6178.64 h -725.5 v 87.01 h 725.5 v -87.01" /><path
         id="path488"
         style="fill:#ffffff;fill-opacity:1;fill-rule:nonzero;stroke:none"
         d="m 11805.1,5905.56 h -725.5 v 87.01 h 725.5 v -87.01" /><path
         id="path490"
         style="fill:#ffffff;fill-opacity:1;fill-rule:nonzero;stroke:none"
         d="m 11805.1,5632.48 h -725.5 v 87.01 h 725.5 v -87.01" /><path
         id="path492"
         style="fill:#ffffff;fill-opacity:1;fill-rule:nonzero;stroke:none"
         d="m 11805.1,5359.39 h -725.5 v 87.03 h 725.5 v -87.03" /><path
         id="path494"
         style="fill:#ffffff;fill-opacity:1;fill-rule:nonzero;stroke:none"
         d="m 11805.1,5086.32 h -725.5 v 87.01 h 725.5 v -87.01" /><path
         id="path496"
         style="fill:#ffffff;fill-opacity:1;fill-rule:nonzero;stroke:none"
         d="m 11805.1,4813.23 h -889.3 v 87.02 h 889.3 v -87.02" /><path
         id="path498"
         style="fill:#ffffff;fill-opacity:1;fill-rule:nonzero;stroke:none"
         d="m 11805.1,4540.16 h -889.3 v 87.01 h 889.3 v -87.01" /><path
         id="path500"
         style="fill:#ffffff;fill-opacity:1;fill-rule:nonzero;stroke:none"
         d="m 3655.04,8049.61 v -75.66 h -41.86 v 75.66 h 41.86" /><path
         id="path502"
         style="fill:#ffffff;fill-opacity:1;fill-rule:nonzero;stroke:none"
         d="m 3709.33,8112.08 v -138.13 h -41.87 v 138.13 h 41.87" /><path
         id="path504"
         style="fill:#ffffff;fill-opacity:1;fill-rule:nonzero;stroke:none"
         d="m 4316.02,8158.47 v -184.52 h -41.86 v 184.52 h 41.86" /><path
         id="path506"
         style="fill:#ffffff;fill-opacity:1;fill-rule:nonzero;stroke:none"
         d="m 4372.86,8206.46 v -232.51 h -41.69 v 232.51 h 41.69" /><path
         id="path508"
         style="fill:#ffffff;fill-opacity:1;fill-rule:nonzero;stroke:none"
         d="m 3722.23,8112.08 h 36.95 v -106.77 h 52.86 v -30.81 h -89.81 v 137.58" /><path
         id="path510"
         style="fill:#ffffff;fill-opacity:1;fill-rule:nonzero;stroke:none"
         d="m 3855.57,8043.29 c 0,-25.93 11.23,-41.85 28.98,-41.85 17.75,0 28.17,17.35 28.17,42.25 0,23.68 -10.61,41.64 -28.58,41.64 -17.34,0 -28.57,-16.73 -28.57,-42.04 z m 96.14,1.43 c 0,-44.29 -26.55,-72.46 -69,-72.46 -42.66,0 -66.13,32.04 -66.13,70.22 0,40.2 26.13,72.04 68.38,72.04 44.29,0 66.75,-32.86 66.75,-69.8" /><path
         id="path512"
         style="fill:#ffffff;fill-opacity:1;fill-rule:nonzero;stroke:none"
         d="m 4090.57,7980.83 c -10.41,-3.47 -29.59,-7.76 -47.56,-7.76 -26.94,0 -45.31,6.73 -57.76,18.58 -12.86,12.25 -19.59,30 -19.59,49.79 0.21,47.76 35.92,72.07 80.42,72.07 18.57,0 32.65,-3.28 39.79,-6.75 l -7.34,-29.39 c -7.76,3.26 -17.15,5.72 -32.66,5.72 -22.65,0 -41.44,-11.85 -41.44,-39.8 0,-25.73 16.54,-40.62 38.99,-40.62 5.11,0 9.79,0.4 11.64,1.23 v 23.66 h -18.37 v 28.59 h 53.88 v -75.32" /><path
         id="path514"
         style="fill:#ffffff;fill-opacity:1;fill-rule:nonzero;stroke:none"
         d="m 4146.98,8043.29 c 0,-25.93 11.22,-41.85 28.97,-41.85 17.76,0 28.18,17.35 28.18,42.25 0,23.68 -10.62,41.64 -28.58,41.64 -17.35,0 -28.57,-16.73 -28.57,-42.04 z m 96.13,1.43 c 0,-44.29 -26.54,-72.46 -68.99,-72.46 -42.65,0 -66.13,32.04 -66.13,70.22 0,40.2 26.13,72.04 68.38,72.04 44.29,0 66.74,-32.86 66.74,-69.8" /><path
         id="path516"
         style="fill:#f7916b;fill-opacity:1;fill-rule:nonzero;stroke:none"
         d="m 11776.8,1258 c 0,0 -64.7,-657.098 -330,-737.297 123.4,-40.101 441.1,141.899 468.9,197.399 27.7,55.5 27.7,168.398 27.7,168.398 0,0 -104.9,44.5 -24.6,331.4 -114.2,9.2 -142,40.1 -142,40.1" /><path
         id="path518"
         style="fill:#b9b9e3;fill-opacity:1;fill-rule:nonzero;stroke:none"
         d="m 13200.8,459.602 c 0,-69.7 -455.7,-126.2 -1017.8,-126.2 -562.2,0 -1017.8,56.5 -1017.8,126.2 0,69.699 455.6,126.199 1017.8,126.199 562.1,0 1017.8,-56.5 1017.8,-126.199" /><path
         id="path520"
         style="fill:#192c4a;fill-opacity:1;fill-rule:nonzero;stroke:none"
         d="m 11462.2,554.602 c 0,0 -197.5,-123.403 -21.6,-132.7 175.8,-9.199 408.6,71.598 433.3,179.5 24.7,108 26.3,-145.5 26.3,-145.5 l 34.4,-1.5 c 0,0 108.4,368.399 34.5,432.098 -37.7,32.402 -59.6,22.902 -59.6,22.902 0,0 -286.9,-506 -447.3,-354.8" /><path
         id="path522"
         style="fill:#192c4a;fill-opacity:1;fill-rule:nonzero;stroke:none"
         d="m 12116.2,3664.24 c 0,0 -485.4,-2344.57 -362,-2500.84 213.9,-49.4 641.7,-8.3 814.5,2138.87 32.9,-863.79 -24.7,-1982.6 164.5,-2105.97 205.6,-82.3 296.1,254.99 213.9,1349.13 16.4,361.96 213.9,616.99 106.9,962.5 -106.9,345.52 -937.8,156.31 -937.8,156.31" /><path
         id="path524"
         style="fill:#f7916b;fill-opacity:1;fill-rule:nonzero;stroke:none"
         d="m 12748.6,1288.82 c 0,0 -37,-564.519 -49.4,-607.718 267.1,-9 263.3,0 263.3,0 0,0 -93.6,459.598 -75.1,706.438 -138.8,-98.72 -138.8,-98.72 -138.8,-98.72" /><path
         id="path526"
         style="fill:#192c4a;fill-opacity:1;fill-rule:nonzero;stroke:none"
         d="m 12648.9,502.402 c 0,0 -48.5,-81.203 170.7,-81.203 158.5,0 172.9,82.801 172.9,82.801 0,0 -11.9,165.699 -73.9,283.602 -64.8,123.101 -83.6,121.8 -114.5,100.199 -30.8,-21.602 -145.9,-283.598 -155.2,-385.399" /><path
         id="path528"
         style="fill:#2f3f9d;fill-opacity:1;fill-rule:nonzero;stroke:none"
         d="m 12720.8,576.199 62.4,-155.996 c 0,0 -6.8,211.5 -19.2,208.399 -12.3,-3.102 -43.2,-52.403 -43.2,-52.403" /><path
         id="path530"
         style="fill:#2f3f9d;fill-opacity:1;fill-rule:nonzero;stroke:none"
         d="m 12847.3,421.199 c 0,0 0,195.203 34,207.5 37,-64.898 30.8,-58.699 30.8,-80.297 0,-21.601 -64.8,-127.203 -64.8,-127.203" /><path
         id="path532"
         style="fill:#f7916b;fill-opacity:1;fill-rule:nonzero;stroke:none"
         d="m 12279.7,5209.81 c 0,0 -191.3,188.18 -24.7,496.67 166.6,308.5 484.4,83.3 493.6,-101.8 10.1,-201.79 43.6,-400.02 -234.4,-453.49 -160.5,-30.85 -234.5,58.62 -234.5,58.62" /><path
         id="path534"
         style="fill:#f7916b;fill-opacity:1;fill-rule:nonzero;stroke:none"
         d="m 12435,5198.49 v -283.81 l 269.4,90.49 -94.6,257.08 -174.8,-63.76" /><path
         id="path536"
         style="fill:#f7916b;fill-opacity:1;fill-rule:nonzero;stroke:none"
         d="m 11528.8,5846.13 c 0,0 -84.4,-400.28 87.3,-335.64 137.5,-319.51 186.8,-502.53 238.8,-636.31 52,-133.79 670.2,-212.43 848.4,-188.21 178.3,24.21 199.9,79.37 189.4,140.94 0,0 3.6,80.38 -210.7,106.57 -214.4,26.19 -614.8,-26.19 -645.2,20.41 -30.4,46.6 -303.2,540.1 -311,623.73 -23.9,257.33 -165.3,268.98 -197,268.51" /><path
         id="path538"
         style="fill:#e3ecf8;fill-opacity:1;fill-rule:nonzero;stroke:none"
         d="m 12358.9,4935.24 c 0,0 456.6,234.46 505.9,111.06 49.4,-123.4 0,-156.31 0,-156.31 0,0 102.8,20.57 160.4,-16.44 57.6,-37.03 -127.5,-547.08 -98.7,-777.42 28.8,-230.34 189.2,-501.81 127.5,-588.2 -61.7,-86.38 -884.3,-69.92 -933.7,-16.45 -49.4,53.47 -16.5,370.19 57.6,526.5 74,156.31 19.8,601.36 32.5,712 12.7,110.66 148.5,205.26 148.5,205.26" /><path
         id="path540"
         style="fill:#ddd3ed;fill-opacity:1;fill-rule:nonzero;stroke:none"
         d="m 12421.7,4094.77 c 109.2,374.4 78.8,565.67 71.9,592.51 -19.1,74.27 -62.9,157.13 -113.1,149.19 -29.9,-4.74 -154.7,-179.31 -169.4,-209.28 -11.1,-22.58 0.8,-73.77 1.8,-98.61 1.4,-35.84 2.7,-71.68 3.6,-107.52 3.2,-126.58 17.3,-285.04 -38.6,-403.08 -74.1,-156.31 -107,-473.03 -57.6,-526.5 22.5,-24.4 206,-41.08 404.8,-43.81 0.4,0.19 29.5,-0.52 29.9,-0.32 21.7,11.72 -212.8,312.73 -133.3,647.42" /><path
         id="path542"
         style="fill:#796ebe;fill-opacity:1;fill-rule:nonzero;stroke:none"
         d="m 11221.2,4021.64 -1948.61,390.6 357.56,1783.81 1948.65,-390.6 -357.6,-1783.81" /><path
         id="path544"
         style="fill:#ffffff;fill-opacity:1;fill-rule:nonzero;stroke:none"
         d="m 10480.5,5466.87 c -111.7,22.37 -219.5,-43.74 -253.7,-149.46 l 187.1,-37.51 -48.1,-239.79 c 9,-3.06 17.9,-6.5 27.4,-8.42 120.2,-24.08 237.1,53.8 261.2,173.97 24.1,120.18 -53.8,237.12 -173.9,261.21" /><path
         id="path546"
         style="fill:#f25a1a;fill-opacity:1;fill-rule:nonzero;stroke:none"
         d="m 10226.8,5317.41 -220.1,44.12 -81.66,-407.23 407.26,-81.62 33.5,167.43 48.1,239.79 -187.1,37.51" /><path
         id="path548"
         style="fill:#f25a1a;fill-opacity:1;fill-rule:nonzero;stroke:none"
         d="m 10806.1,4663.59 -407.2,81.63 285.2,366.41 z" /><path
         id="path550"
         style="fill:#f7916b;fill-opacity:1;fill-rule:nonzero;stroke:none"
         d="m 10879.1,4086.53 c 0,0 27.1,-248.47 352,-164.38 347.8,6.23 568.8,-17 712.3,-19.52 143.5,-2.52 450.4,539.83 495.5,713.97 45.1,174.14 2.3,215.07 -58.7,228.67 0,0 -73,33.78 -178.4,-154.68 -105.4,-188.47 -208.6,-578.96 -263.3,-589.41 -54.6,-10.45 -487.6,-31.24 -582.8,-40.91 -62.8,4.03 -152.8,210.86 -186.3,182.49 -33.6,-28.37 38.3,-99.65 36.7,-134.11 -1.6,-34.45 -171,-94.54 -215.1,-44.43 -44.1,50.11 -100.3,51.88 -111.9,22.31" /><path
         id="path552"
         style="fill:#544ba9;fill-opacity:1;fill-rule:nonzero;stroke:none"
         d="m 12159.6,5756.3 c 0,0 -9.5,-284.77 239.8,-309.3 71.7,-3.09 43.5,97.02 64,111.15 25.6,17.65 99.6,-17.57 80.1,-99.07 -19.4,-81.49 129.5,-187.78 203.6,-96.29 74.2,91.5 98.2,453.14 -136.7,531.18 -234.9,78.05 -451.2,-19.9 -450.8,-137.67" /><path
         id="path554"
         style="fill:#544ba9;fill-opacity:1;fill-rule:nonzero;stroke:none"
         d="m 12724.9,5306.8 c 0,0 -48.9,4.26 -13.3,144.74 35.5,140.5 440.5,53.99 406.2,-175.45 -19.9,-64.97 -125,-219.7 -198.7,-90.56 -58.3,102.01 -149.8,-36.96 -194.2,121.27" /><path
         id="path556"
         style="fill:none;stroke:#494a4b;stroke-width:11.64750004;stroke-linecap:butt;stroke-linejoin:miter;stroke-miterlimit:10;stroke-dasharray:58.2376, 58.2376;stroke-dashoffset:0;stroke-opacity:1"
         d="M 8425.78,6272.71 H 6436.18 V 4580.57 h 1989.6 z" /><path
         id="path558"
         style="fill:#c9bee4;fill-opacity:1;fill-rule:nonzero;stroke:none"
         d="M 6049.02,7428.39 H 3529.49 v -744.02 h 2519.53 v 744.02" /><path
         id="path560"
         style="fill:#c9bee4;fill-opacity:1;fill-rule:nonzero;stroke:none"
         d="m 7109.75,7428.39 h -693.02 v -744.02 h 693.02 v 744.02" /><path
         id="path562"
         style="fill:#c9bee4;fill-opacity:1;fill-rule:nonzero;stroke:none"
         d="m 7970.95,7428.39 h -693.01 v -744.02 h 693.01 v 744.02" /><path
         id="path564"
         style="fill:#c9bee4;fill-opacity:1;fill-rule:nonzero;stroke:none"
         d="m 8832.14,7428.39 h -693.01 v -744.02 h 693.01 v 744.02" /><path
         id="path566"
         style="fill:#c9bee4;fill-opacity:1;fill-rule:nonzero;stroke:none"
         d="m 9693.34,7428.39 h -693.01 v -744.02 h 693.01 v 744.02" /><path
         id="path568"
         style="fill:#c9bee4;fill-opacity:1;fill-rule:nonzero;stroke:none"
         d="m 10554.5,7428.39 h -692.98 v -744.02 h 692.98 v 744.02" /><path
         id="path570"
         style="fill:#201e1d;fill-opacity:1;fill-rule:nonzero;stroke:none"
         d="m 4975.95,10318.7 c -8.77,11.2 -156.64,398.9 -62.62,687.7 94.02,288.8 251.57,200.9 251.57,200.9 0,0 29.22,141.8 238.94,23.2 209.72,-118.7 209.49,-398 180.03,-540.8 -29.45,-142.8 -122.57,-514.2 -122.57,-514.2 l -485.35,143.2" /><path
         id="path572"
         style="fill:#f37e67;fill-opacity:1;fill-rule:nonzero;stroke:none"
         d="m 5480.58,10768.2 c -39.91,-167.4 -177.46,-278.1 -307.21,-247.1 -129.77,30.9 -202.6,191.7 -162.69,359.1 39.92,167.5 177.46,278.1 307.22,247.2 129.75,-31 202.59,-191.8 162.68,-359.2" /><path
         id="path574"
         style="fill:#f37e67;fill-opacity:1;fill-rule:nonzero;stroke:none"
         d="m 5052.54,10830.2 c -8.7,-36.5 -38.53,-60.6 -66.64,-53.9 -28.1,6.7 -43.83,41.7 -35.14,78.2 8.7,36.4 38.53,60.6 66.63,53.9 28.11,-6.7 43.84,-41.7 35.15,-78.2" /><path
         id="path576"
         style="fill:#201e1d;fill-opacity:1;fill-rule:nonzero;stroke:none"
         d="m 4993.33,10961 c 0,0 50.66,-89.9 42.86,-141.8 -7.8,-51.9 20.57,-4.9 20.57,-4.9 0,0 17.22,177.8 110.71,219.6 93.49,41.8 -47.76,121.3 -49.39,121.7 -1.62,0.3 -168.06,-73 -124.75,-194.6" /><path
         id="path578"
         style="fill:#201e1d;fill-opacity:1;fill-rule:nonzero;stroke:none"
         d="m 5211.64,11171.2 c 0,0 -0.9,-66.1 53.03,-84.7 53.92,-18.6 216.31,-148.6 110.89,-360.4 0,0 -4.83,-25.1 18.41,-4.4 23.22,20.6 163.76,344.1 -3.78,436.7 -167.55,92.6 -178.55,12.8 -178.55,12.8" /><path
         id="path580"
         style="fill:#f7916b;fill-opacity:1;fill-rule:nonzero;stroke:none"
         d="m 5404.91,7556.4 c 0,0 -209.39,-588.64 -266.36,-669.2 13.11,-153.36 117.94,-155.68 117.94,-155.68 0,0 219.27,661.85 295.12,767.92 75.84,106.08 -146.7,56.96 -146.7,56.96" /><path
         id="path582"
         style="fill:#1b353d;fill-opacity:1;fill-rule:nonzero;stroke:none"
         d="m 5157.68,6898.14 c 0,0 -27.53,53.9 -78.99,-5.43 -51.46,-59.34 -81.78,-116.02 -68.16,-157.04 13.62,-41.02 277.16,-295.08 354.93,-295.08 77.76,0 19.72,115.98 -18.32,159.34 -38.04,43.36 -27.03,159.44 -21.98,196.47 5.05,37.03 -84.24,-13.54 -167.48,101.74" /><path
         id="path584"
         style="fill:#f7916b;fill-opacity:1;fill-rule:nonzero;stroke:none"
         d="m 5023.42,7565.17 c 0,0 -189.02,-595.5 -243.19,-677.96 18.38,-152.82 123.22,-151.54 123.22,-151.54 0,0 196.39,669 268.54,777.62 72.15,108.62 -148.57,51.88 -148.57,51.88" /><path
         id="path586"
         style="fill:#1b353d;fill-opacity:1;fill-rule:nonzero;stroke:none"
         d="m 4798.98,6898.79 c 0,0 -29.37,52.92 -78.76,-8.14 -49.39,-61.07 -90.2,-78.12 -70.8,-137.86 19.4,-59.73 330.19,-304.13 372.94,-304.13 42.76,0 15.73,116.59 -23.78,158.62 -39.51,42.02 -32.49,158.41 -28.72,195.59 3.77,37.18 -83.73,-16.42 -170.88,95.92" /><path
         id="path588"
         style="fill:#f37e67;fill-opacity:1;fill-rule:nonzero;stroke:none"
         d="m 5292.8,10371.9 c 0,0 -14.12,-157.3 101.2,-675.41 43.67,-196.21 39.58,-278.32 124.22,-355.35 52.06,-47.38 796.37,-126.97 896.85,-119.77 100.48,7.19 104.8,74.37 90.09,105.64 -18.9,40.18 -202.65,59.44 -257.32,37.77 -58.32,-23.11 -584.72,100.66 -596.13,117.28 -11.41,16.61 14.49,477.16 -54.74,658.74 -71.95,188.7 -199.31,256.9 -304.17,231.1" /><path
         id="path590"
         style="fill:#8b90d0;fill-opacity:1;fill-rule:nonzero;stroke:none"
         d="m 5950.33,8646.67 c -42.28,282.26 -443.79,816.14 -443.79,816.14 l -399.66,-18.43 v 0 c -115.05,28.85 -155.35,60.51 -155.35,60.51 0,0 -429.38,-768.65 121.75,-950.76 -281.42,-486.44 -236.93,-1394.26 -236.93,-1394.26 l 206.53,-68.92 c 0,0 469.62,1168.31 469.46,1443.47 91.84,-34.18 -15.47,-511.4 -109.05,-793.16 -93.58,-281.76 -199.49,-630.98 -194.42,-615.75 11.44,34.41 222.59,-34.56 222.59,-34.56 0,0 690.22,1026.2 518.87,1555.72" /><path
         id="path592"
         style="fill:#626dbe;fill-opacity:1;fill-rule:nonzero;stroke:none"
         d="m 5069.92,9451.69 c -101.96,23.52 -90.95,2.61 -90.95,2.61 0,0 -121.91,-148.13 -142.62,-366.57 78.83,59.95 229.89,195.78 248.29,366.68 l -14.72,-2.72" /><path
         id="path594"
         style="fill:#626dbe;fill-opacity:1;fill-rule:nonzero;stroke:none"
         d="m 5533.34,8930.39 -25.73,9.73 c 0,0 -138.68,216.47 -134.3,470.47 l -90.8,5.75 c -50.81,-207.51 346.95,-516.68 226.92,-863.3 137.3,54.87 23.91,377.35 23.91,377.35" /><path
         id="path596"
         style="fill:#f37e67;fill-opacity:1;fill-rule:nonzero;stroke:none"
         d="m 4767.17,10386.2 c 0,0 279.5,104.5 623.99,-21.6 92.07,-228.9 47.23,-303 47.23,-303 0,0 -357.1,14.2 -363.77,14.7 -6.66,0.4 -307.45,309.9 -307.45,309.9" /><path
         id="path598"
         style="fill:#2c2f7b;fill-opacity:1;fill-rule:nonzero;stroke:none"
         d="m 4795.82,10391.1 c 0,0 372.96,-344.8 608.16,-223.6 36.95,19.9 -28.82,207.6 -28.82,207.6 l 38.98,-12 c 0,0 380.29,-546.02 168.45,-791.35 -70.2,-87 -76.05,-108.94 -76.05,-108.94 0,0 -463.01,-90.88 -545.69,12.39 -84.74,141.31 -239.64,371.95 -239.64,371.95 0,0 -85.25,344.45 -47.67,444.65 37.58,100.2 122.28,99.3 122.28,99.3" /><path
         id="path600"
         style="fill:#201e1d;fill-opacity:1;fill-rule:nonzero;stroke:none"
         d="m 6535.32,9303.08 -1075.23,68.12 -243.78,-610.83 1075.23,-68.13 243.78,610.84" /><path
         id="path602"
         style="fill:#201e1d;fill-opacity:1;fill-rule:nonzero;stroke:none"
         d="m 6289.54,8652.23 -1286.42,81.51 2.81,44.36 1286.41,-81.51 -2.8,-44.36" /><path
         id="path604"
         style="fill:#f37e67;fill-opacity:1;fill-rule:nonzero;stroke:none"
         d="m 4723.72,10344.4 c 0,0 -160.76,-108 -269.51,-627.55 -108.75,-519.52 -70.67,-481.78 -34.35,-542.07 36.33,-60.3 421.46,-459.43 488.06,-535.03 66.58,-75.59 225.41,-103.5 259.3,-96.73 33.89,6.78 60.78,114.37 -114,172.28 0,0 -51.91,25.6 -13.58,32.09 38.33,6.5 110.05,82.25 32.83,60.38 -77.23,-21.88 -134.31,-42.79 -188.03,-10.39 -53.71,32.4 -329.25,471.42 -330.2,491.56 -0.96,20.14 269.71,508.01 306.42,698.82 38.16,198.34 -34.22,323.34 -136.94,356.64" /><path
         id="path606"
         style="fill:#f37e67;fill-opacity:1;fill-rule:nonzero;stroke:none"
         d="m 4984.62,10393.8 c 0,0 96.04,200.1 83.82,300.7 134.06,-74.8 186.41,-127.2 186.41,-127.2 0,0 -94.58,-141.2 -27.31,-240.1 67.27,-99 -80.04,-32.7 -80.04,-32.7 l -162.88,99.3" /><path
         id="path608"
         style="fill:#796ebe;fill-opacity:1;fill-rule:nonzero;stroke:none"
         d="m 9191.41,6701.27 v 51.77 l 42.71,37.5 c 62.67,54.12 94.48,86.4 94.95,117.75 0,22.31 -14.72,38.43 -46.04,38.43 -25.64,0 -48.91,-12.8 -65.99,-25.13 l -23.28,61.24 c 23.74,17.55 62.67,32.28 106.36,32.28 71.67,0 114.42,-38.93 114.42,-99.7 0,-49.37 -35.13,-89.27 -71.71,-119.19 l -30.38,-23.74 v -0.93 h 107.32 v -70.28 h -228.36" /><path
         id="path610"
         style="fill:#796ebe;fill-opacity:1;fill-rule:nonzero;stroke:none"
         d="m 9544.29,6855.56 c -0.47,-66.92 13.76,-95.41 36.57,-95.41 21.84,0 35.14,28.96 35.14,95.41 0,65.07 -12.83,94.99 -35.61,94.99 -21.83,0 -36.1,-28.5 -36.1,-94.99 z m 157.15,0.51 c 0,-91.17 -38.43,-160.01 -121.55,-160.01 -88.3,0 -121.04,77.85 -121.04,159.04 0,83.58 34.64,160.01 121.54,160.01 90.2,0 121.05,-80.26 121.05,-159.04" /><path
         id="path612"
         style="fill:#796ebe;fill-opacity:1;fill-rule:nonzero;stroke:none"
         d="m 9892.35,6994.58 c 0,-22.29 6.84,-37.38 21.22,-37.38 12.94,0 19.76,12.93 19.76,37.38 0,21.93 -5.38,37.74 -20.49,37.74 -14.73,0 -20.49,-16.53 -20.49,-37.74 z m 88.43,2.88 c 0,-48.54 -33.06,-74.77 -68.66,-74.77 -38.1,0 -67.22,28.04 -67.22,70.81 0,39.55 25.53,73.33 69.39,73.33 43.13,0 66.49,-31.27 66.49,-69.37 z m -239.05,-75.14 133.01,240.85 h 33.07 l -132.64,-240.85 z m -24.8,169.31 c 0,-22.28 6.83,-37.74 21.22,-37.74 12.93,0 19.76,12.94 19.76,37.74 0,21.57 -5.39,37.75 -20.5,37.75 -14.72,0 -20.48,-16.54 -20.48,-37.75 z m 88.43,2.89 c 0,-48.9 -33.07,-75.13 -68.66,-75.13 -38.11,0 -67.23,28.04 -67.23,70.81 0,39.9 25.53,73.69 69.39,73.69 43.13,0 66.5,-31.27 66.5,-69.37" /><path
         id="path614"
         style="fill:#2c2f7b;fill-opacity:1;fill-rule:nonzero;stroke:none"
         d="m 3832.61,7062.64 c 0,54.87 0.04,109.74 -0.08,164.61 -0.01,4.02 2.12,9.41 -2.35,11.76 -5.45,2.86 -8.21,-3.02 -11.39,-5.85 -35.32,-31.3 -70.6,-62.66 -105.58,-94.36 -7.66,-6.94 -15.34,-10.9 -26.09,-10.08 -12.69,0.96 -25.52,-0.16 -38.26,0.34 -8.1,0.32 -11.32,-2.14 -11.24,-10.75 0.38,-36.58 0.35,-73.16 0.02,-109.74 -0.07,-8.31 2.67,-11.82 11.05,-10.92 3.78,0.41 7.74,-0.51 11.46,0.12 30.32,5.13 52.93,-6.61 74.07,-28.23 26.71,-27.3 56.43,-51.66 84.95,-77.18 2.99,-2.68 5.68,-7.63 10.47,-5.74 5.14,2.02 2.9,7.52 2.91,11.41 0.18,54.87 0.12,109.74 0.12,164.61 -0.02,0 -0.04,0 -0.06,0" /><path
         id="path616"
         style="fill:#2c2f7b;fill-opacity:1;fill-rule:nonzero;stroke:none"
         d="m 4130.67,7068.98 c -1.9,78.3 -24.08,149.59 -73.14,211.54 -15,18.94 -24.82,22.43 -35.82,13.41 -11.38,-9.34 -10.25,-23.55 3.2,-40.22 81.65,-101.21 87.63,-247 14.36,-354.46 -5.96,-8.73 -13.24,-16.55 -19.5,-25.09 -8.78,-12 -7.76,-27.47 2.53,-34.89 12.75,-9.18 21.85,-2.26 30.08,7.69 53.36,64.41 77.2,139.2 78.29,222.02" /><path
         id="path618"
         style="fill:#2c2f7b;fill-opacity:1;fill-rule:nonzero;stroke:none"
         d="m 4051.11,7088.87 c -0.03,35.48 -16.91,88.2 -53.81,134.2 -8.73,10.87 -18.13,17.61 -31.36,8.04 -10.33,-7.46 -11.36,-22.93 -1.41,-34.5 62.31,-72.43 62.19,-187.03 0.31,-258.97 -10.67,-12.41 -9.17,-28.41 2.08,-35.78 14,-9.19 22.72,-0.3 31.13,9.92 33.8,41.08 52.82,96.03 53.06,177.09" /><path
         id="path620"
         style="fill:#2c2f7b;fill-opacity:1;fill-rule:nonzero;stroke:none"
         d="m 3972.32,7062.24 c -0.03,37.06 -9.1,67.52 -28.74,94.51 -12.3,16.91 -22.28,20.33 -33.02,12.17 -11.33,-8.6 -11.91,-22.25 -0.6,-37.25 20.39,-27.02 26.83,-56.85 19.45,-89.76 -3.55,-15.78 -11.25,-29.49 -21.26,-42.06 -8.41,-10.56 -9.07,-21.58 -0.28,-32.11 8.14,-9.73 20.68,-8.75 30.1,2.45 23.25,27.64 33.68,60 34.35,92.05" /><path
         id="path622"
         style="fill:#f25a1a;fill-opacity:1;fill-rule:nonzero;stroke:none"
         d="m 14333.1,3547.15 c 43.3,34.69 90.6,61.23 139.8,80.01 l -49.2,160.32 c -68.8,-24.98 -134.9,-61.26 -195.3,-109.54 -150.5,-120.42 -237,-291.18 -254.9,-468.97 l 166.1,-23.29 c 12,136.9 77.7,268.85 193.5,361.47" /><path
         id="path624"
         style="fill:#675ab2;fill-opacity:1;fill-rule:nonzero;stroke:none"
         d="m 15330,2988.51 -164.9,30.23 c -26,-108.81 -87,-210.15 -181.1,-285.44 -224.8,-179.74 -552.7,-143.26 -732.4,81.48 -87.1,108.93 -123.3,242.11 -112,370.9 l -166.1,23.29 c -17.3,-172.88 30.2,-352.4 147.3,-498.8 237.5,-296.98 670.8,-345.18 967.8,-107.66 126.9,101.52 208.2,238.86 241.4,386" /><path
         id="path626"
         style="fill:#f7916b;fill-opacity:1;fill-rule:nonzero;stroke:none"
         d="m 15165.1,3018.74 164.9,-30.23 c 44.4,197.07 2.2,411.74 -133.8,581.77 l -130.8,-104.61 c 104.5,-130.58 135.8,-295.98 99.7,-446.93" /><path
         id="path628"
         style="fill:#eda222;fill-opacity:1;fill-rule:nonzero;stroke:none"
         d="m 15065.4,3465.67 130.8,104.61 c -189.2,236.61 -502.7,315.09 -772.5,217.2 l 49.2,-160.32 c 205.9,78.54 447.5,19.88 592.5,-161.49" /><path
         id="path630"
         style="fill:#ffffff;fill-opacity:1;fill-rule:nonzero;stroke:none"
         d="m 14192.5,3024.4 c -44.6,0 -80.7,36.08 -80.7,80.67 0,44.59 36.1,80.67 80.7,80.67 44.4,0 80.5,-36.08 80.5,-80.67 0,-44.59 -36.1,-80.67 -80.5,-80.67 z m -40.5,282.85 c -242.7,-89.01 -218.4,101.09 -218.4,210.34 0,109.08 -327.6,469.01 -614.5,105.16 -286.9,-364 355.7,-812.1 355.7,-812.1 148.4,-122.52 473.1,-46.63 602.6,76.93 154.7,147.89 117.2,508.67 -125.4,419.67" /><path
         id="path632"
         style="fill:#6e8dd0;fill-opacity:1;fill-rule:nonzero;stroke:none"
         d="m 13466.5,3404.33 c 0,-30.16 -24.4,-54.59 -54.6,-54.59 -30.1,0 -54.6,24.43 -54.6,54.59 0,30.14 24.5,54.59 54.6,54.59 30.2,0 54.6,-24.45 54.6,-54.59" /><path
         id="path634"
         style="fill:#f25a1a;fill-opacity:1;fill-rule:nonzero;stroke:none"
         d="m 13548.4,3533.22 c 0,-30.14 -24.4,-54.59 -54.6,-54.59 -30.1,0 -54.6,24.45 -54.6,54.59 0,30.16 24.5,54.59 54.6,54.59 30.2,0 54.6,-24.43 54.6,-54.59" /><path
         id="path636"
         style="fill:#eda222;fill-opacity:1;fill-rule:nonzero;stroke:none"
         d="m 13509,3246.61 c 0,-30.14 -24.5,-54.59 -54.6,-54.59 -30.2,0 -54.6,24.45 -54.6,54.59 0,30.16 24.4,54.59 54.6,54.59 30.1,0 54.6,-24.43 54.6,-54.59" /><path
         id="path638"
         style="fill:#f3bcb5;fill-opacity:1;fill-rule:nonzero;stroke:none"
         d="m 13706.1,3599.15 c 0,-30.16 -24.4,-54.6 -54.6,-54.6 -30.1,0 -54.6,24.44 -54.6,54.6 0,30.15 24.5,54.59 54.6,54.59 30.2,0 54.6,-24.44 54.6,-54.59" /><path
         id="path640"
         style="fill:#ffffff;fill-opacity:1;fill-rule:nonzero;stroke:none"
         d="m 13706.1,3024.4 c 0,-30.14 -24.4,-54.59 -54.6,-54.59 -30.1,0 -54.6,24.45 -54.6,54.59 0,30.16 24.5,54.6 54.6,54.6 30.2,0 54.6,-24.44 54.6,-54.6" /><path
         id="path642"
         style="fill:#c9bee4;fill-opacity:1;fill-rule:nonzero;stroke:none"
         d="m 13131.9,2325.46 h 2425.5 v 651.19 h -2425.5 v -651.19" /><path
         id="path644"
         style="fill:none;stroke:#544ba9;stroke-width:62.25490189;stroke-linecap:butt;stroke-linejoin:miter;stroke-miterlimit:10;stroke-dasharray:none;stroke-opacity:1"
         d="m 13131.9,2325.46 h 2425.5 v 651.19 h -2425.5 z" /><path
         id="path646"
         style="fill:#c9bee4;fill-opacity:1;fill-rule:nonzero;stroke:none"
         d="m 13911.7,5086.47 1791.2,-1635.4 -145.5,-159.29 -1791.2,1635.39 145.5,159.3" /><path
         id="path648"
         style="fill:none;stroke:#544ba9;stroke-width:35.8302002;stroke-linecap:butt;stroke-linejoin:miter;stroke-miterlimit:10;stroke-dasharray:none;stroke-opacity:1"
         d="m 13911.7,5086.47 1791.2,-1635.4 -145.5,-159.29 -1791.2,1635.39 z" /><path
         id="path650"
         style="fill:#c9bee4;fill-opacity:1;fill-rule:nonzero;stroke:none"
         d="m 13131.9,861.5 h 2425.5 v 651.21 H 13131.9 V 861.5" /><path
         id="path652"
         style="fill:none;stroke:#544ba9;stroke-width:62.25490189;stroke-linecap:butt;stroke-linejoin:miter;stroke-miterlimit:10;stroke-dasharray:none;stroke-opacity:1"
         d="m 13131.9,861.5 h 2425.5 v 651.21 h -2425.5 z" /><path
         id="path654"
         style="fill:#c9bee4;fill-opacity:1;fill-rule:nonzero;stroke:none"
         d="m 13131.9,1512.71 h 374.3 v 812.75 h -374.3 v -812.75" /><path
         id="path656"
         style="fill:none;stroke:#544ba9;stroke-width:53.4742012;stroke-linecap:butt;stroke-linejoin:miter;stroke-miterlimit:10;stroke-dasharray:none;stroke-opacity:1"
         d="m 13131.9,1512.71 h 374.3 v 812.75 h -374.3 z" /><path
         id="path658"
         style="fill:#c9bee4;fill-opacity:1;fill-rule:nonzero;stroke:none"
         d="m 13644.7,1512.71 h 374.3 v 812.75 h -374.3 v -812.75" /><path
         id="path660"
         style="fill:none;stroke:#544ba9;stroke-width:53.4742012;stroke-linecap:butt;stroke-linejoin:miter;stroke-miterlimit:10;stroke-dasharray:none;stroke-opacity:1"
         d="m 13644.7,1512.71 h 374.3 v 812.75 h -374.3 z" /><path
         id="path662"
         style="fill:#c9bee4;fill-opacity:1;fill-rule:nonzero;stroke:none"
         d="m 14157.5,1512.71 h 374.3 v 812.75 h -374.3 v -812.75" /><path
         id="path664"
         style="fill:none;stroke:#544ba9;stroke-width:53.4742012;stroke-linecap:butt;stroke-linejoin:miter;stroke-miterlimit:10;stroke-dasharray:none;stroke-opacity:1"
         d="m 14157.5,1512.71 h 374.3 v 812.75 h -374.3 z" /><path
         id="path666"
         style="fill:#c9bee4;fill-opacity:1;fill-rule:nonzero;stroke:none"
         d="m 14670.3,1512.71 h 374.3 v 812.75 h -374.3 v -812.75" /><path
         id="path668"
         style="fill:none;stroke:#544ba9;stroke-width:53.4742012;stroke-linecap:butt;stroke-linejoin:miter;stroke-miterlimit:10;stroke-dasharray:none;stroke-opacity:1"
         d="m 14670.3,1512.71 h 374.3 v 812.75 h -374.3 z" /><path
         id="path670"
         style="fill:#c9bee4;fill-opacity:1;fill-rule:nonzero;stroke:none"
         d="m 15183.1,1512.71 h 374.3 v 812.75 h -374.3 v -812.75" /><path
         id="path672"
         style="fill:none;stroke:#544ba9;stroke-width:53.4742012;stroke-linecap:butt;stroke-linejoin:miter;stroke-miterlimit:10;stroke-dasharray:none;stroke-opacity:1"
         d="m 15183.1,1512.71 h 374.3 v 812.75 h -374.3 z" /><path
         id="path674"
         style="fill:#c9bee4;fill-opacity:1;fill-rule:nonzero;stroke:none"
         d="m 15601.4,3140.14 c 0,-88.47 71.7,-160.19 160.2,-160.19 88.5,0 160.2,71.72 160.2,160.19 0,88.47 -71.7,160.18 -160.2,160.18 -88.5,0 -160.2,-71.71 -160.2,-160.18" /><path
         id="path676"
         style="fill:none;stroke:#544ba9;stroke-width:31.6473999;stroke-linecap:butt;stroke-linejoin:miter;stroke-miterlimit:10;stroke-dasharray:none;stroke-opacity:1"
         d="m 15601.4,3140.14 c 0,-88.47 71.7,-160.19 160.2,-160.19 88.5,0 160.2,71.72 160.2,160.19 0,88.47 -71.7,160.18 -160.2,160.18 -88.5,0 -160.2,-71.71 -160.2,-160.18 z" /><path
         id="path678"
         style="fill:#675ab2;fill-opacity:1;fill-rule:nonzero;stroke:none"
         d="m 13736.1,611 c 0,-93.598 -75.9,-169.5 -169.5,-169.5 -93.6,0 -169.5,75.902 -169.5,169.5 0,93.602 75.9,169.402 169.5,169.402 93.6,0 169.5,-75.8 169.5,-169.402" /><path
         id="path680"
         style="fill:#675ab2;fill-opacity:1;fill-rule:nonzero;stroke:none"
         d="m 15262,611 c 0,-93.598 -75.9,-169.5 -169.5,-169.5 -93.6,0 -169.5,75.902 -169.5,169.5 0,93.602 75.9,169.402 169.5,169.402 93.6,0 169.5,-75.8 169.5,-169.402" /><path
         id="path682"
         style="fill:#38a49d;fill-opacity:1;fill-rule:nonzero;stroke:none"
         d="m 13603,3122.27 c 0,-30.16 -24.5,-54.6 -54.6,-54.6 -30.2,0 -54.6,24.44 -54.6,54.6 0,30.14 24.4,54.59 54.6,54.59 30.1,0 54.6,-24.45 54.6,-54.59" /></g></g></svg>